<?xml version="1.0" encoding="UTF-8" standalone="no"?>
<svg
   xmlns:dc="http://purl.org/dc/elements/1.1/"
   xmlns:cc="http://creativecommons.org/ns#"
   xmlns:rdf="http://www.w3.org/1999/02/22-rdf-syntax-ns#"
   xmlns:svg="http://www.w3.org/2000/svg"
   xmlns="http://www.w3.org/2000/svg"
   xmlns:sodipodi="http://sodipodi.sourceforge.net/DTD/sodipodi-0.dtd"
   xmlns:inkscape="http://www.inkscape.org/namespaces/inkscape"
   width="16"
   height="16"
   viewBox="0 0 4.2333332 4.2333335"
   version="1.1"
   id="svg8"
   inkscape:version="1.0.1 (3bc2e813f5, 2020-09-07)"
   sodipodi:docname="btn_ico.svg"
   inkscape:export-filename="D:\Atelier\Code\Cpp\OpenModMan\art\btn_new.png"
   inkscape:export-xdpi="96"
   inkscape:export-ydpi="96">
  <defs
     id="defs2" />
  <sodipodi:namedview
     id="base"
     pagecolor="#ffffff"
     bordercolor="#666666"
     borderopacity="1.0"
     inkscape:pageopacity="0.0"
     inkscape:pageshadow="2"
     inkscape:zoom="31.678384"
     inkscape:cx="6.4378805"
     inkscape:cy="10.871966"
     inkscape:document-units="px"
     inkscape:current-layer="layer1"
     inkscape:document-rotation="0"
     showgrid="true"
     units="px"
     inkscape:window-width="1451"
     inkscape:window-height="943"
     inkscape:window-x="162"
     inkscape:window-y="44"
     inkscape:window-maximized="0"
     inkscape:snap-bbox="true"
     inkscape:bbox-nodes="true"
     inkscape:snap-bbox-midpoints="true"
     showguides="false"
     inkscape:snap-global="true">
    <inkscape:grid
       type="xygrid"
       id="grid835"
       originx="0"
       originy="0" />
    <sodipodi:guide
       position="-1.211065,5.0270835"
       orientation="0.70710678,-0.70710678"
       id="guide839" />
  </sodipodi:namedview>
  <metadata
     id="metadata5">
    <rdf:RDF>
      <cc:Work
         rdf:about="">
        <dc:format>image/svg+xml</dc:format>
        <dc:type
           rdf:resource="http://purl.org/dc/dcmitype/StillImage" />
        <dc:title />
      </cc:Work>
    </rdf:RDF>
  </metadata>
  <g
     inkscape:label="Calque 1"
     inkscape:groupmode="layer"
     id="layer1">
    <path
       id="rect1424"
       style="display:none;fill:#000000;fill-opacity:1;stroke-width:2;stroke-linecap:round"
       d="M 3.7578125,2.34375 2.34375,3.7578125 6.5859375,8 2.34375,12.242188 3.7578125,13.65625 8,9.4140625 12.242188,13.65625 13.65625,12.242188 9.4140625,8 13.65625,3.7578125 12.242188,2.34375 8,6.5859375 Z"
       transform="scale(0.26458333)"
       inkscape:label="not" />
    <path
       id="path1433"
       style="color:#000000;font-style:normal;font-variant:normal;font-weight:normal;font-stretch:normal;font-size:medium;line-height:normal;font-family:sans-serif;font-variant-ligatures:normal;font-variant-position:normal;font-variant-caps:normal;font-variant-numeric:normal;font-variant-alternates:normal;font-variant-east-asian:normal;font-feature-settings:normal;font-variation-settings:normal;text-indent:0;text-align:start;text-decoration:none;text-decoration-line:none;text-decoration-style:solid;text-decoration-color:#000000;letter-spacing:normal;word-spacing:normal;text-transform:none;writing-mode:lr-tb;direction:ltr;text-orientation:mixed;dominant-baseline:auto;baseline-shift:baseline;text-anchor:start;white-space:normal;shape-padding:0;shape-margin:0;inline-size:0;clip-rule:nonzero;display:none;overflow:visible;visibility:visible;opacity:1;isolation:auto;mix-blend-mode:normal;color-interpolation:sRGB;color-interpolation-filters:linearRGB;solid-color:#000000;solid-opacity:1;vector-effect:none;fill:#000000;fill-opacity:1;fill-rule:nonzero;stroke:none;stroke-width:2;stroke-linecap:round;stroke-linejoin:miter;stroke-miterlimit:4;stroke-dasharray:none;stroke-dashoffset:0;stroke-opacity:1;color-rendering:auto;image-rendering:auto;shape-rendering:auto;text-rendering:auto;enable-background:accumulate;stop-color:#000000;stop-opacity:1"
       d="M 14,2 12.230469,3.7695312 C 10.67345,2.2140525 8.3550402,1.5986376 6.1933594,2.28125 3.6258553,3.0920126 1.9036858,5.5260469 2,8.2167969 2.0963141,10.907547 3.9885211,13.208867 6.6074219,13.833984 9.2263223,14.459102 11.948775,13.253649 13.25,10.896484 A 1.0000006,1.0000006 0 0 0 12.859375,9.5371094 1.0000006,1.0000006 0 0 0 11.501953,9.9355469 C 10.630698,11.513823 8.8257899,12.311135 7.0722656,11.892578 5.318741,11.474021 4.0664417,9.9442105 4.0019531,8.1425781 3.9374642,6.3409454 5.0797168,4.7284053 6.7988281,4.1855469 8.2464846,3.728408 9.7827733,4.1382497 10.820312,5.1796875 L 9,7 h 5 z"
       transform="scale(0.26458333)"
       inkscape:label="ref" />
    <path
       d="M 0.52916667,3.4395833 H 3.4885265 L 3.5071325,3.3465557 3.8052989,1.9153574 3.8351159,1.7698523 H 3.5108296 V 1.0542529 H 2.0124843 L 1.8075844,0.84911465 1.7701352,0.81572005 H 0.52916703 Z M 0.76769966,2.3512762 V 1.0542529 H 1.6697123 l 0.2048999,0.2051384 0.037449,0.033395 h 1.3602344 v 0.4770659 h -1.062187 l -0.03733,0.033394 -0.2048997,0.2051384 H 0.85357155 l -0.0226607,0.08945 z M 0.80109418,3.2010504 1.0396272,2.246918 H 2.0685395 L 2.1058715,2.213524 2.3106519,2.0083856 H 3.5442238 L 3.2947184,3.2010504 H 0.80133289 Z"
       id="path1424"
       style="display:none;stroke-width:0.119266"
       inkscape:label="opn" />
    <path
       d="M 0.79375,0.52668303 V 3.7041667 H 3.2379682 V 1.3325417 L 3.2037494,1.2942894 2.4704839,0.56102415 2.4321098,0.52680505 H 0.79375 Z M 1.0381719,0.77110488 H 2.260281 V 1.5043703 H 2.9935464 V 3.4597448 H 1.0381719 Z M 2.5047029,0.94684415 2.8179294,1.2599485 H 2.5047029 V 0.94672193 Z"
       id="path1465"
       style="stroke-width:0.122212"
       inkscape:label="new" />
  </g>
</svg>
