<?xml version="1.0" encoding="UTF-8" standalone="no"?>
<!-- Created with Inkscape (http://www.inkscape.org/) -->

<svg
   xmlns:dc="http://purl.org/dc/elements/1.1/"
   xmlns:cc="http://creativecommons.org/ns#"
   xmlns:rdf="http://www.w3.org/1999/02/22-rdf-syntax-ns#"
   xmlns:svg="http://www.w3.org/2000/svg"
   xmlns="http://www.w3.org/2000/svg"
   xmlns:xlink="http://www.w3.org/1999/xlink"
   xmlns:sodipodi="http://sodipodi.sourceforge.net/DTD/sodipodi-0.dtd"
   xmlns:inkscape="http://www.inkscape.org/namespaces/inkscape"
   width="512"
   height="512"
   viewBox="0 0 135.46666 135.46665"
   version="1.1"
   id="svg8"
   inkscape:version="0.92.4 (5da689c313, 2019-01-14)"
   sodipodi:docname="icon_lib.svg"
   inkscape:export-filename="D:\Atelier\Dev\cpp\OpenModMan\art\pkg_zip_16.png"
   inkscape:export-xdpi="3.0000002"
   inkscape:export-ydpi="3.0000002">
  <defs
     id="defs2">
    <linearGradient
       inkscape:collect="always"
       id="linearGradient1856">
      <stop
         style="stop-color:#15c25e;stop-opacity:1"
         offset="0"
         id="stop1852" />
      <stop
         style="stop-color:#209752;stop-opacity:1"
         offset="1"
         id="stop1854" />
    </linearGradient>
    <linearGradient
       inkscape:collect="always"
       id="linearGradient1824">
      <stop
         style="stop-color:#febf00;stop-opacity:1"
         offset="0"
         id="stop1820" />
      <stop
         style="stop-color:#fe8f00;stop-opacity:1"
         offset="1"
         id="stop1822" />
    </linearGradient>
    <linearGradient
       inkscape:collect="always"
       id="linearGradient1149">
      <stop
         style="stop-color:#bd0000;stop-opacity:1"
         offset="0"
         id="stop1145" />
      <stop
         style="stop-color:#ff3a3a;stop-opacity:1"
         offset="1"
         id="stop1147" />
    </linearGradient>
    <linearGradient
       inkscape:collect="always"
       id="linearGradient940">
      <stop
         style="stop-color:#ffd05e;stop-opacity:1"
         offset="0"
         id="stop936" />
      <stop
         style="stop-color:#a6651d;stop-opacity:1"
         offset="1"
         id="stop938" />
    </linearGradient>
    <linearGradient
       inkscape:collect="always"
       id="linearGradient932">
      <stop
         style="stop-color:#f7cc5a;stop-opacity:1"
         offset="0"
         id="stop928" />
      <stop
         style="stop-color:#ffe496;stop-opacity:1"
         offset="1"
         id="stop930" />
    </linearGradient>
    <inkscape:perspective
       sodipodi:type="inkscape:persp3d"
       inkscape:vp_x="-156.54209 : 151.08475 : 1"
       inkscape:vp_y="0 : 651.0179 : 0"
       inkscape:vp_z="289.2194 : 151.08475 : 1"
       inkscape:persp3d-origin="11.02165 : 65.960196 : 1"
       id="perspective882" />
    <inkscape:perspective
       sodipodi:type="inkscape:persp3d"
       inkscape:vp_x="-189.65398 : 175.91164 : 1"
       inkscape:vp_y="0 : 1000 : 0"
       inkscape:vp_z="495.06071 : 175.91164 : 1"
       inkscape:persp3d-origin="67.73333 : 45.15555 : 1"
       id="perspective831" />
    <linearGradient
       inkscape:collect="always"
       xlink:href="#linearGradient932"
       id="linearGradient934"
       x1="71.154198"
       y1="281.18176"
       x2="36.281002"
       y2="212.59633"
       gradientUnits="userSpaceOnUse" />
    <linearGradient
       inkscape:collect="always"
       xlink:href="#linearGradient940"
       id="linearGradient942"
       x1="72.209869"
       y1="196.49521"
       x2="93.772865"
       y2="280.98193"
       gradientUnits="userSpaceOnUse" />
    <linearGradient
       inkscape:collect="always"
       xlink:href="#linearGradient1149"
       id="linearGradient1151"
       x1="86.900299"
       y1="272.85107"
       x2="40.180157"
       y2="189.23448"
       gradientUnits="userSpaceOnUse"
       gradientTransform="matrix(1.0575986,0,0,1.0575986,-3.1758895,-9.1983536)" />
    <linearGradient
       inkscape:collect="always"
       xlink:href="#linearGradient1824"
       id="linearGradient1826"
       x1="43.421375"
       y1="211.0188"
       x2="116.63609"
       y2="271.63553"
       gradientUnits="userSpaceOnUse"
       gradientTransform="translate(-1.27985,-5.528785)" />
    <linearGradient
       inkscape:collect="always"
       xlink:href="#linearGradient1856"
       id="linearGradient1858"
       x1="21.435383"
       y1="239.04415"
       x2="133.69571"
       y2="239.04415"
       gradientUnits="userSpaceOnUse" />
  </defs>
  <sodipodi:namedview
     id="base"
     pagecolor="#ffffff"
     bordercolor="#c6c6c6"
     borderopacity="1"
     inkscape:pageopacity="0.0"
     inkscape:pageshadow="2"
     inkscape:zoom="0.796875"
     inkscape:cx="314.95952"
     inkscape:cy="199.38755"
     inkscape:document-units="mm"
     inkscape:current-layer="g861"
     showgrid="false"
     units="px"
     inkscape:pagecheckerboard="false"
     showborder="true"
     inkscape:showpageshadow="false"
     inkscape:snap-bbox="true"
     inkscape:snap-bbox-midpoints="true"
     showguides="true"
     inkscape:guide-bbox="true"
     inkscape:snap-center="true"
     inkscape:window-width="1446"
     inkscape:window-height="963"
     inkscape:window-x="242"
     inkscape:window-y="24"
     inkscape:window-maximized="0"
     inkscape:snap-others="false"
     inkscape:snap-global="false"
     inkscape:object-paths="true"
     inkscape:snap-nodes="true"
     inkscape:bbox-nodes="false" />
  <metadata
     id="metadata5">
    <rdf:RDF>
      <cc:Work
         rdf:about="">
        <dc:format>image/svg+xml</dc:format>
        <dc:type
           rdf:resource="http://purl.org/dc/dcmitype/StillImage" />
        <dc:title></dc:title>
      </cc:Work>
    </rdf:RDF>
  </metadata>
  <g
     inkscape:label="Calque 1"
     inkscape:groupmode="layer"
     id="layer1"
     transform="translate(0,-161.53338)"
     style="display:inline">
    <g
       id="g861"
       style="display:inline;opacity:0.98999999;fill:#e1b84f;fill-opacity:1;stroke:none;stroke-width:7.55905533;stroke-linecap:round;stroke-linejoin:miter;stroke-miterlimit:4;stroke-dasharray:none;stroke-dashoffset:19.75;stroke-opacity:1;paint-order:normal"
       transform="matrix(1.1805799,0,0,1.1805799,-9.8109252,-48.301325)"
       inkscape:label="Package">
      <path
         d="M 65.824283,196.28324 V 290.9042 L 121.27521,261.38523 V 196.24876 Z"
         style="fill:#f2d286;fill-opacity:1;stroke:none;stroke-width:1.30203569"
         id="path886"
         inkscape:connector-curvature="0"
         sodipodi:nodetypes="ccccc"
         inkscape:label="Face Droite" />
      <path
         d="m 10.274152,196.142 55.550131,0.14124 V 290.9042 L 10.274152,261.16502 Z"
         style="fill:#ddb36a;fill-opacity:1;stroke:none;stroke-width:1.30203569"
         id="path888"
         inkscape:connector-curvature="0"
         sodipodi:nodetypes="ccccc"
         inkscape:label="Face Gauche" />
      <path
         d="M 10.274152,196.142 65.824283,212.8676 121.27521,196.24876 65.650513,186.17097 Z"
         style="fill:#f8eac6;fill-opacity:1;stroke:none;stroke-width:1.30203569"
         id="path884"
         inkscape:connector-curvature="0"
         inkscape:label="Face Dessus" />
      <path
         style="fill:#c8b890;fill-opacity:1;stroke:none;stroke-width:0.26458332px;stroke-linecap:butt;stroke-linejoin:miter;stroke-opacity:1"
         d="m 33.91635,191.885 54.737137,14.14061 13.272853,-3.97793 -54.883702,-12.52619 z"
         id="path894"
         inkscape:connector-curvature="0"
         sodipodi:nodetypes="ccccc"
         inkscape:label="Bande Dessus" />
      <path
         style="fill:#bba877;fill-opacity:1;stroke:none;stroke-width:0.26458332px;stroke-linecap:butt;stroke-linejoin:miter;stroke-opacity:1"
         d="m 88.653252,206.02561 v 39.71556 l 13.273138,-5.53766 v -38.15583 z"
         id="path896"
         inkscape:connector-curvature="0"
         sodipodi:nodetypes="ccccc"
         inkscape:label="Bande Face" />
      <path
         inkscape:connector-curvature="0"
         id="path969"
         d="m 31.581748,214.07864 c -3.811337,-7e-5 -6.9011,3.18393 -6.901207,7.1117 0.0018,2.55779 1.336321,4.91757 3.494912,6.18002 v 12.49943 c -5.4e-5,0.97269 0.495685,1.89372 1.349764,2.5077 l 19.080726,12.91072 c 0.127971,0.0936 0.263009,0.17938 0.404176,0.25677 l -0.0508,8.73833 c -2.2042,1.41648 -3.554481,3.969 -3.557588,6.72509 -1.23e-4,4.33601 3.276947,7.85109 7.319427,7.85104 4.042482,5e-5 7.319553,-3.51502 7.31943,-7.85104 -0.0013,-2.84809 -1.440417,-5.47211 -3.760758,-6.85682 l 0.187493,-32.37973 c 2.20654,-1.41578 3.558676,-3.96959 3.561913,-6.72748 1.24e-4,-4.33601 -3.276948,-7.85109 -7.319429,-7.85104 -4.04248,-5e-5 -7.319551,3.51503 -7.319428,7.85104 0.0013,2.84639 1.438788,5.46908 3.756974,6.85444 l -0.08915,15.37799 -13.563868,-8.94391 v -11.29377 c 1.868058,-1.32519 2.985093,-3.51165 2.988074,-5.84878 -1.07e-4,-3.92755 -3.089542,-7.11147 -6.900667,-7.1117 z"
         style="color:#000000;font-style:normal;font-variant:normal;font-weight:normal;font-stretch:normal;font-size:medium;line-height:normal;font-family:sans-serif;font-variant-ligatures:normal;font-variant-position:normal;font-variant-caps:normal;font-variant-numeric:normal;font-variant-alternates:normal;font-feature-settings:normal;text-indent:0;text-align:start;text-decoration:none;text-decoration-line:none;text-decoration-style:solid;text-decoration-color:#000000;letter-spacing:normal;word-spacing:normal;text-transform:none;writing-mode:lr-tb;direction:ltr;text-orientation:mixed;dominant-baseline:auto;baseline-shift:baseline;text-anchor:start;white-space:normal;shape-padding:0;clip-rule:nonzero;display:none;overflow:visible;visibility:visible;opacity:1;isolation:auto;mix-blend-mode:normal;color-interpolation:sRGB;color-interpolation-filters:linearRGB;solid-color:#000000;solid-opacity:1;vector-effect:none;fill:#c9593a;fill-opacity:1;fill-rule:nonzero;stroke:none;stroke-width:6.87910986;stroke-linecap:round;stroke-linejoin:round;stroke-miterlimit:4;stroke-dasharray:none;stroke-dashoffset:0;stroke-opacity:1;color-rendering:auto;image-rendering:auto;shape-rendering:auto;text-rendering:auto;enable-background:accumulate"
         inkscape:label="Dependances"
         sodipodi:nodetypes="ccccccccccccccccccccccc" />
      <g
         id="g1881"
         transform="translate(-82.872053,-8.964521)"
         style="display:none"
         inkscape:label="Dependence Source">
        <path
           inkscape:connector-curvature="0"
           id="rect1862"
           transform="matrix(0.22411303,0,0,0.22411303,8.3102594,177.73867)"
           d="m 65.058594,144.25586 a 17.019025,17.019025 0 0 0 -17.021485,17.02148 v 248.40821 a 17.019025,17.019025 0 0 0 17.021485,17.01172 H 313.45898 a 17.019025,17.019025 0 0 0 17.01954,-17.01172 V 296.7207 h -34.03125 v 95.94532 H 82.070312 V 178.29688 H 205.85352 v -34.04102 z"
           style="color:#000000;font-style:normal;font-variant:normal;font-weight:normal;font-stretch:normal;font-size:medium;line-height:normal;font-family:sans-serif;font-variant-ligatures:normal;font-variant-position:normal;font-variant-caps:normal;font-variant-numeric:normal;font-variant-alternates:normal;font-feature-settings:normal;text-indent:0;text-align:start;text-decoration:none;text-decoration-line:none;text-decoration-style:solid;text-decoration-color:#000000;letter-spacing:normal;word-spacing:normal;text-transform:none;writing-mode:lr-tb;direction:ltr;text-orientation:mixed;dominant-baseline:auto;baseline-shift:baseline;text-anchor:start;white-space:normal;shape-padding:0;clip-rule:nonzero;display:inline;overflow:visible;visibility:visible;opacity:0.98999999;isolation:auto;mix-blend-mode:normal;color-interpolation:sRGB;color-interpolation-filters:linearRGB;solid-color:#000000;solid-opacity:1;vector-effect:none;fill:#434343;fill-opacity:1;fill-rule:nonzero;stroke:none;stroke-width:34.03464508;stroke-linecap:round;stroke-linejoin:round;stroke-miterlimit:4;stroke-dasharray:none;stroke-dashoffset:19.75;stroke-opacity:1;paint-order:normal;color-rendering:auto;image-rendering:auto;shape-rendering:auto;text-rendering:auto;enable-background:accumulate" />
        <path
           inkscape:connector-curvature="0"
           id="rect1869"
           d="M 86.740846,205.5315 H 58.905835 l 9.760677,9.76068 -37.017141,37.01714 8.313657,8.31366 37.01714,-37.01715 9.760677,9.76068 z"
           style="opacity:0.98999999;fill:#434343;fill-opacity:1;stroke:none;stroke-width:8.0642128;stroke-linecap:round;stroke-linejoin:round;stroke-miterlimit:4;stroke-dasharray:none;stroke-dashoffset:19.75;stroke-opacity:1;paint-order:normal" />
      </g>
      <path
         sodipodi:nodetypes="ccccccccccccccccccccccc"
         inkscape:label="Dependence"
         inkscape:connector-curvature="0"
         id="path923"
         d="m 43.939728,213.42794 5.269514,8.45048 -18.943115,17.38426 4.01719,7.21353 19.583985,-17.12787 5.680065,9.10886 v -20.07137 l -15.607639,-4.95789 m -17.769841,-2.76596 c -0.464527,-0.15312 -0.908392,-0.0453 -1.23461,0.29857 -0.325346,0.34293 -0.507713,0.89332 -0.507648,1.53076 v 34.72964 c 4.09e-4,1.32703 0.777289,2.78575 1.742258,3.26186 l 28.601418,14.80397 c 1.213814,0.59917 2.205914,-0.13042 2.20644,-1.63468 v -18.43008 l -4.376825,-1.8297 v 15.461 L 27.936296,246.48039 v -30.36082 l 13.663636,4.77149 v -5.14604 l -15.430045,-5.08304"
         style="color:#000000;font-style:normal;font-variant:normal;font-weight:normal;font-stretch:normal;font-size:medium;line-height:normal;font-family:sans-serif;font-variant-ligatures:normal;font-variant-position:normal;font-variant-caps:normal;font-variant-numeric:normal;font-variant-alternates:normal;font-feature-settings:normal;text-indent:0;text-align:start;text-decoration:none;text-decoration-line:none;text-decoration-style:solid;text-decoration-color:#000000;letter-spacing:normal;word-spacing:normal;text-transform:none;writing-mode:lr-tb;direction:ltr;text-orientation:mixed;dominant-baseline:auto;baseline-shift:baseline;text-anchor:start;white-space:normal;shape-padding:0;clip-rule:nonzero;display:none;overflow:visible;visibility:visible;opacity:0.98999999;isolation:auto;mix-blend-mode:normal;color-interpolation:sRGB;color-interpolation-filters:linearRGB;solid-color:#000000;solid-opacity:1;vector-effect:none;fill:#000000;fill-opacity:0.70642204;fill-rule:nonzero;stroke:none;stroke-width:5.84143305;stroke-linecap:round;stroke-linejoin:round;stroke-miterlimit:4;stroke-dasharray:none;stroke-dashoffset:19.75;stroke-opacity:1;paint-order:normal;color-rendering:auto;image-rendering:auto;shape-rendering:auto;text-rendering:auto;enable-background:accumulate" />
    </g>
    <g
       id="g965"
       inkscape:label="Dossier"
       transform="translate(-2.3593797,-3.4552315)"
       style="display:none">
      <path
         inkscape:label="Volet Arriere"
         sodipodi:nodetypes="ccczcccccc"
         inkscape:connector-curvature="0"
         id="path911"
         d="m 4.3598333,192.75452 c 0,-4.23902 4.0787414,-7.4918 7.5725937,-7.4918 h 37.502798 c 5.439226,0 6.929538,2.33962 9.498588,6.04628 2.56905,3.70666 3.180788,5.39755 10.817092,5.39755 h 46.347175 c 5.0136,0 8.34625,2.9153 8.34625,7.49174 v 77.16476 H 4.3598333 Z"
         style="fill:url(#linearGradient942);fill-opacity:1;stroke:none;stroke-width:0.26458332px;stroke-linecap:butt;stroke-linejoin:miter;stroke-opacity:1" />
      <path
         inkscape:label="Feuille Arriere"
         sodipodi:nodetypes="ccccc"
         inkscape:connector-curvature="0"
         id="path944-4"
         d="m 13.077148,269.28437 v -68.655 H 114.10668 v 68.655 z"
         style="display:inline;fill:#dddddd;fill-opacity:1;stroke:none;stroke-width:0.26458332px;stroke-linecap:butt;stroke-linejoin:miter;stroke-opacity:1" />
      <path
         inkscape:label="Feuille Avant"
         sodipodi:nodetypes="ccccc"
         inkscape:connector-curvature="0"
         id="path944"
         d="m 14.210169,271.91737 v -68.655 H 115.23969 v 68.655 z"
         style="display:inline;fill:#f6f6f6;fill-opacity:1;stroke:none;stroke-width:0.26458332px;stroke-linecap:butt;stroke-linejoin:miter;stroke-opacity:1" />
      <path
         inkscape:label="Volet Avant"
         sodipodi:nodetypes="ccczcccccc"
         inkscape:connector-curvature="0"
         id="path911-1"
         d="m 16.0015,218.15452 c 0.56396,-3.58878 2.491242,-5.9043 5.985094,-5.9043 H 63.19356 c 5.43922,0 5.183923,-0.30583 7.91109,-1.89122 2.727167,-1.58539 2.651624,-2.53995 10.287924,-2.53995 h 46.347186 c 5.0136,0 8.9941,3.21763 8.34625,7.49174 l -11.64167,66.05226 H 4.3598333 Z"
         style="display:inline;fill:url(#linearGradient934);fill-opacity:1;stroke:none;stroke-width:0.26458332px;stroke-linecap:butt;stroke-linejoin:miter;stroke-opacity:1" />
    </g>
    <path
       style="display:none;opacity:0.997;fill:url(#linearGradient1151);fill-opacity:1;stroke:none;stroke-width:2.00500011;stroke-linecap:square;stroke-linejoin:round;stroke-miterlimit:4;stroke-dasharray:none;stroke-dashoffset:0;stroke-opacity:1;paint-order:normal"
       d="m 17.471911,197.28838 36.767156,36.76719 -36.767159,36.76715 13.987855,13.98785 36.767163,-36.76715 36.767164,36.76715 L 118.9812,270.82346 82.214034,234.05627 118.9812,197.28916 104.99334,183.30128 68.226176,220.06846 31.459014,183.30128 Z"
       id="rect1472"
       inkscape:connector-curvature="0"
       inkscape:label="Erreur" />
    <g
       id="g1363"
       transform="rotate(36.027188,67.04825,231.2013)"
       inkscape:label="Attente"
       style="display:none">
      <path
         inkscape:label="Section 8"
         inkscape:connector-curvature="0"
         id="path1351"
         transform="matrix(0.21397859,-0.15561974,0.15561974,0.21397859,-28.152732,214.29391)"
         d="m 394.85938,120.83398 -17.63086,17.62891 a 168.03219,168.03219 0 0 1 0,0.002 l -16.4668,16.46485 -3.72852,3.73047 -12.73632,12.73828 a 121.40125,121.40125 0 0 1 29.63867,48.36914 l 17.14062,-5.55078 3.69336,-1.19532 23.48242,-7.60546 23.72266,-7.6836 a 192.99497,192.99497 0 0 0 -47.11523,-76.89844 z"
         style="display:inline;opacity:0.98999999;fill:#fafafa;fill-opacity:1;stroke:none;stroke-width:7.16648102;stroke-linecap:round;stroke-linejoin:round;stroke-miterlimit:4;stroke-dasharray:none;stroke-dashoffset:19.75;stroke-opacity:1;paint-order:normal" />
      <path
         inkscape:label="Section 7"
         inkscape:connector-curvature="0"
         id="path1347"
         transform="matrix(0.21397859,-0.15561974,0.15561974,0.21397859,-28.152732,214.29391)"
         d="m 379.8125,257.13477 a 121.40125,121.40125 0 0 1 -13.20312,55.18359 l 16.05078,8.19726 25.45117,13 22.21875,11.34766 a 192.99497,192.99497 0 0 0 20.98633,-87.72851 h -24.93164 -28.5586 z"
         style="display:inline;opacity:0.98999999;fill:#f0f0f0;fill-opacity:1;stroke:none;stroke-width:7.16648102;stroke-linecap:round;stroke-linejoin:round;stroke-miterlimit:4;stroke-dasharray:none;stroke-dashoffset:19.75;stroke-opacity:1;paint-order:normal" />
      <path
         inkscape:label="Section 6"
         inkscape:connector-curvature="0"
         id="path1345"
         transform="matrix(0.21397859,-0.15561974,0.15561974,0.21397859,-28.152732,214.29391)"
         d="m 344.29688,342.87305 a 121.40125,121.40125 0 0 1 -48.3711,29.64062 l 5.55078,17.14063 8.80274,27.17382 7.68359,23.72461 a 192.99497,192.99497 0 0 0 76.89649,-47.11718 L 377.22852,375.80469 357.0332,355.61133 Z"
         style="display:inline;opacity:0.98999999;fill:#c8c8c8;fill-opacity:1;stroke:none;stroke-width:7.16648102;stroke-linecap:round;stroke-linejoin:round;stroke-miterlimit:4;stroke-dasharray:none;stroke-dashoffset:19.75;stroke-opacity:1;paint-order:normal" />
      <path
         inkscape:label="Section 5"
         inkscape:connector-curvature="0"
         id="path1341"
         transform="matrix(0.21397859,-0.15561974,0.15561974,0.21397859,-28.152732,214.29391)"
         d="m 203.375,365.1875 -8.19727,16.05078 -13,25.45117 -11.34765,22.21875 a 192.99497,192.99497 0 0 0 87.72851,20.98828 V 424.96289 396.40234 378.38867 A 121.40125,121.40125 0 0 1 203.375,365.1875 Z"
         style="display:inline;opacity:0.98999999;fill:#a0a0a0;fill-opacity:1;stroke:none;stroke-width:7.16648102;stroke-linecap:round;stroke-linejoin:round;stroke-miterlimit:4;stroke-dasharray:none;stroke-dashoffset:19.75;stroke-opacity:1;paint-order:normal" />
      <path
         inkscape:label="Section 4"
         inkscape:connector-curvature="0"
         id="path1230"
         transform="matrix(0.21397859,-0.15561974,0.15561974,0.21397859,-28.152732,214.29391)"
         d="m 143.18164,294.50195 -17.14062,5.55078 -27.175786,8.80274 -23.724609,7.68359 a 192.99497,192.99497 0 0 0 47.115235,76.89844 l 17.63086,-17.63086 20.19726,-20.19531 a 139.43656,139.43656 0 0 1 0,-0.002 L 172.82031,342.873 a 121.40125,121.40125 0 0 1 -29.63867,-48.3711 z"
         style="display:inline;opacity:0.98999999;fill:#787878;fill-opacity:1;stroke:none;stroke-width:7.16648102;stroke-linecap:round;stroke-linejoin:round;stroke-miterlimit:4;stroke-dasharray:none;stroke-dashoffset:19.75;stroke-opacity:1;paint-order:normal" />
      <path
         inkscape:label="Section 3"
         inkscape:connector-curvature="0"
         id="path1343"
         transform="matrix(0.21397859,-0.15561974,0.15561974,0.21397859,-28.152732,214.29391)"
         d="m 86.787109,169.40625 a 192.99497,192.99497 0 0 0 -20.988281,87.72852 h 24.931641 28.560551 18.01367 a 121.40125,121.40125 0 0 1 13.20312,-55.1836 l -16.05078,-8.19726 v -0.002 l -25.45117,-12.99804 z"
         style="display:inline;opacity:0.98999999;fill:#505050;fill-opacity:1;stroke:none;stroke-width:7.16648102;stroke-linecap:round;stroke-linejoin:round;stroke-miterlimit:4;stroke-dasharray:none;stroke-dashoffset:19.75;stroke-opacity:1;paint-order:normal" />
      <path
         inkscape:label="Section 2"
         inkscape:connector-curvature="0"
         id="path1349"
         transform="matrix(0.21397859,-0.15561974,0.15561974,0.21397859,-28.152732,214.29391)"
         d="m 199.1543,73.71875 a 192.99497,192.99497 0 0 0 -76.89649,47.11523 l 17.62891,17.62891 20.19726,20.19727 12.73633,12.73632 a 121.40125,121.40125 0 0 1 48.3711,-29.63671 l -5.55079,-17.14063 -8.80273,-27.177734 z"
         style="display:inline;opacity:0.98999999;fill:#282828;fill-opacity:1;stroke:none;stroke-width:7.16648102;stroke-linecap:round;stroke-linejoin:round;stroke-miterlimit:4;stroke-dasharray:none;stroke-dashoffset:19.75;stroke-opacity:1;paint-order:normal" />
      <path
         inkscape:label="Section 1"
         inkscape:connector-curvature="0"
         id="path1353"
         transform="matrix(0.21397859,-0.15561974,0.15561974,0.21397859,-28.152732,214.29391)"
         d="m 258.55664,64.376953 v 24.931641 28.560546 18.01367 a 121.40125,121.40125 0 0 1 55.18555,13.20117 l 8.19922,-16.05273 6.37109,-12.47656 6.62695,-12.97266 11.34766,-22.218749 A 192.99497,192.99497 0 0 0 258.55664,64.376953 Z"
         style="display:inline;opacity:0.98999999;fill:#000000;fill-opacity:1;stroke:none;stroke-width:7.16648102;stroke-linecap:round;stroke-linejoin:round;stroke-miterlimit:4;stroke-dasharray:none;stroke-dashoffset:19.75;stroke-opacity:1;paint-order:normal" />
    </g>
    <path
       inkscape:connector-curvature="0"
       id="rect1797"
       d="m 45.806849,190.58468 -14.142289,14.14229 31.819762,31.81976 -31.819762,31.81976 14.142289,14.14229 31.819762,-31.81976 31.819769,31.81976 14.14176,-14.14229 -31.819757,-31.81976 31.819757,-31.81976 -14.14176,-14.14229 -31.819769,31.81976 z"
       style="display:none;opacity:0.98999999;fill:url(#linearGradient1826);fill-opacity:1;stroke:none;stroke-width:2.00500011;stroke-linecap:round;stroke-linejoin:round;stroke-miterlimit:4;stroke-dasharray:none;stroke-dashoffset:19.75;stroke-opacity:1;paint-order:normal"
       inkscape:label="Overlap" />
    <path
       style="display:none;opacity:0.98999999;fill:url(#linearGradient1858);fill-opacity:1;stroke:none;stroke-width:2.00500011;stroke-linecap:round;stroke-linejoin:round;stroke-miterlimit:4;stroke-dasharray:none;stroke-dashoffset:19.75;stroke-opacity:1;paint-order:normal"
       d="m 114.71237,197.81024 -49.238331,49.23833 -29.792496,-29.79301 -14.24616,14.24616 29.793013,29.7925 18.983338,18.98385 14.246159,-14.24616 49.237817,-49.23782 z"
       id="rect1828"
       inkscape:connector-curvature="0"
       inkscape:label="Valide" />
  </g>
</svg>
