<?xml version="1.0" encoding="UTF-8" standalone="no"?>
<svg
   xmlns:dc="http://purl.org/dc/elements/1.1/"
   xmlns:cc="http://creativecommons.org/ns#"
   xmlns:rdf="http://www.w3.org/1999/02/22-rdf-syntax-ns#"
   xmlns:svg="http://www.w3.org/2000/svg"
   xmlns="http://www.w3.org/2000/svg"
   xmlns:xlink="http://www.w3.org/1999/xlink"
   xmlns:sodipodi="http://sodipodi.sourceforge.net/DTD/sodipodi-0.dtd"
   xmlns:inkscape="http://www.inkscape.org/namespaces/inkscape"
   id="svg8"
   version="1.1"
   viewBox="0 0 67.733332 67.733335"
   height="256"
   width="256"
   sodipodi:docname="omk_icon.svg"
   inkscape:export-filename="D:\Atelier\Code\Cpp\OpenModMan\art\omk_icon256.png"
   inkscape:export-xdpi="96.000008"
   inkscape:export-ydpi="96.000008"
   inkscape:version="1.0.1 (3bc2e813f5, 2020-09-07)">
  <defs
     id="defs2">
    <linearGradient
       inkscape:collect="always"
       id="linearGradient1221">
      <stop
         style="stop-color:#c55c00;stop-opacity:1"
         offset="0"
         id="stop1217" />
      <stop
         style="stop-color:#9a2a00;stop-opacity:1"
         offset="1"
         id="stop1219" />
    </linearGradient>
    <linearGradient
       inkscape:collect="always"
       id="linearGradient1213">
      <stop
         style="stop-color:#ffa100;stop-opacity:1"
         offset="0"
         id="stop1209" />
      <stop
         style="stop-color:#ffde44;stop-opacity:1"
         offset="1"
         id="stop1211" />
    </linearGradient>
    <linearGradient
       inkscape:collect="always"
       xlink:href="#linearGradient1213"
       id="linearGradient1215"
       x1="322.67654"
       y1="46.724079"
       x2="219.23766"
       y2="32.915741"
       gradientUnits="userSpaceOnUse" />
    <radialGradient
       inkscape:collect="always"
       xlink:href="#linearGradient1221"
       id="radialGradient1223"
       cx="569.43958"
       cy="428.99405"
       fx="569.43958"
       fy="428.99405"
       r="208.24622"
       gradientTransform="matrix(-0.28090941,1.0693816,-3.9313027,-0.89360895,2415.906,203.39878)"
       gradientUnits="userSpaceOnUse" />
    <inkscape:perspective
       sodipodi:type="inkscape:persp3d"
       inkscape:vp_x="-156.54209 : 151.08475 : 1"
       inkscape:vp_y="0 : 651.0179 : 0"
       inkscape:vp_z="289.2194 : 151.08475 : 1"
       inkscape:persp3d-origin="11.02165 : 65.960196 : 1"
       id="perspective882" />
    <inkscape:perspective
       sodipodi:type="inkscape:persp3d"
       inkscape:vp_x="-189.65398 : 175.91164 : 1"
       inkscape:vp_y="0 : 1000 : 0"
       inkscape:vp_z="495.06071 : 175.91164 : 1"
       inkscape:persp3d-origin="67.73333 : 45.15555 : 1"
       id="perspective831" />
    <inkscape:perspective
       sodipodi:type="inkscape:persp3d"
       inkscape:vp_x="-156.54209 : 151.08475 : 1"
       inkscape:vp_y="0 : 651.0179 : 0"
       inkscape:vp_z="289.2194 : 151.08475 : 1"
       inkscape:persp3d-origin="11.02165 : 65.960196 : 1"
       id="perspective882-3" />
    <inkscape:perspective
       sodipodi:type="inkscape:persp3d"
       inkscape:vp_x="-189.65398 : 175.91164 : 1"
       inkscape:vp_y="0 : 1000 : 0"
       inkscape:vp_z="495.06071 : 175.91164 : 1"
       inkscape:persp3d-origin="67.73333 : 45.15555 : 1"
       id="perspective831-7" />
    <inkscape:perspective
       sodipodi:type="inkscape:persp3d"
       inkscape:vp_x="-156.54209 : 151.08475 : 1"
       inkscape:vp_y="0 : 651.0179 : 0"
       inkscape:vp_z="289.2194 : 151.08475 : 1"
       inkscape:persp3d-origin="11.02165 : 65.960196 : 1"
       id="perspective882-0" />
    <inkscape:perspective
       sodipodi:type="inkscape:persp3d"
       inkscape:vp_x="-189.65398 : 175.91164 : 1"
       inkscape:vp_y="0 : 1000 : 0"
       inkscape:vp_z="495.06071 : 175.91164 : 1"
       inkscape:persp3d-origin="67.73333 : 45.15555 : 1"
       id="perspective831-9" />
    <filter
       inkscape:collect="always"
       style="color-interpolation-filters:sRGB"
       id="filter2151"
       x="-0.12362516"
       width="1.2472503"
       y="-0.15926489"
       height="1.3185298">
      <feGaussianBlur
         inkscape:collect="always"
         stdDeviation="6.3096348"
         id="feGaussianBlur2153" />
    </filter>
  </defs>
  <sodipodi:namedview
     id="base"
     pagecolor="#ffffff"
     bordercolor="#666666"
     borderopacity="1.0"
     inkscape:pageopacity="0.0"
     inkscape:pageshadow="2"
     inkscape:zoom="1.6110649"
     inkscape:cx="43.358758"
     inkscape:cy="30.262339"
     inkscape:document-units="mm"
     inkscape:current-layer="g861"
     showgrid="false"
     inkscape:window-width="1540"
     inkscape:window-height="957"
     inkscape:window-x="188"
     inkscape:window-y="32"
     inkscape:window-maximized="0"
     inkscape:snap-smooth-nodes="true"
     units="px"
     inkscape:pagecheckerboard="true"
     inkscape:showpageshadow="false"
     inkscape:snap-global="false"
     inkscape:snap-nodes="true"
     inkscape:snap-others="false"
     inkscape:snap-bbox="true"
     inkscape:bbox-nodes="true"
     inkscape:document-rotation="0" />
  <metadata
     id="metadata5">
    <rdf:RDF>
      <cc:Work
         rdf:about="">
        <dc:format>image/svg+xml</dc:format>
        <dc:type
           rdf:resource="http://purl.org/dc/dcmitype/StillImage" />
        <dc:title />
      </cc:Work>
    </rdf:RDF>
  </metadata>
  <g
     inkscape:label="Calque 1"
     inkscape:groupmode="layer"
     id="layer1"
     transform="translate(0,-229.26665)">
    <g
       id="g861"
       style="display:inline;opacity:0.99;fill:#e1b84f;fill-opacity:1;stroke:none;stroke-width:7.55906;stroke-linecap:round;stroke-linejoin:miter;stroke-miterlimit:4;stroke-dasharray:none;stroke-dashoffset:19.75;stroke-opacity:1;paint-order:normal"
       transform="matrix(0.56039238,0,0,0.56039238,-3.0211325,129.59242)"
       inkscape:label="Package">
      <path
         id="path2142"
         style="display:none;opacity:0.564;mix-blend-mode:normal;fill:#b44203;fill-opacity:0.396739;stroke:none;stroke-width:1.29797;filter:url(#filter2151)"
         inkscape:label="Ombre"
         d="M 33.957475,255.52774 17.447371,276.11422 65.576078,296.59265 130.94089,261.33287 107.2177,254.46574 67.1848,202.9551 Z"
         sodipodi:nodetypes="ccccccc" />
      <path
         d="M 65.824283,196.28324 V 290.9042 L 121.27521,261.38523 V 196.24876 Z"
         style="fill:#f2d386;fill-opacity:1;stroke:none;stroke-width:1.30204"
         id="path886"
         inkscape:connector-curvature="0"
         sodipodi:nodetypes="ccccc"
         inkscape:label="Face Droite" />
      <path
         d="m 10.274152,196.142 55.550131,0.14124 V 290.9042 L 10.274152,261.16502 Z"
         style="fill:#ddb16a;fill-opacity:1;stroke:none;stroke-width:1.30204"
         id="path888"
         inkscape:connector-curvature="0"
         sodipodi:nodetypes="ccccc"
         inkscape:label="Face Gauche" />
      <path
         d="M 10.274152,196.142 65.824283,212.8676 121.27521,196.24876 65.650513,186.17097 Z"
         style="fill:#f8e8c6;fill-opacity:1;stroke:none;stroke-width:1.30204"
         id="path884"
         inkscape:connector-curvature="0"
         inkscape:label="Face Dessus" />
      <path
         style="fill:#3e3e3e;fill-opacity:1;stroke:none;stroke-width:0.264583px;stroke-linecap:butt;stroke-linejoin:miter;stroke-opacity:1"
         d="m 33.91635,191.885 54.737137,14.14061 13.272853,-3.97793 -54.883702,-12.52619 z"
         id="path894"
         inkscape:connector-curvature="0"
         sodipodi:nodetypes="ccccc"
         inkscape:label="Bande Dessus" />
      <path
         style="fill:#181818;fill-opacity:1;stroke:none;stroke-width:0.264583px;stroke-linecap:butt;stroke-linejoin:miter;stroke-opacity:1"
         d="m 88.653252,206.02561 v 39.71556 l 13.273138,-5.53766 v -38.15583 z"
         id="path896"
         inkscape:connector-curvature="0"
         sodipodi:nodetypes="ccccc"
         inkscape:label="Bande Face" />
      <path
         inkscape:connector-curvature="0"
         id="path969"
         d="m 31.581748,214.07864 c -3.811337,-7e-5 -6.9011,3.18393 -6.901207,7.1117 0.0018,2.55779 1.336321,4.91757 3.494912,6.18002 v 12.49943 c -5.4e-5,0.97269 0.495685,1.89372 1.349764,2.5077 l 19.080726,12.91072 c 0.127971,0.0936 0.263009,0.17938 0.404176,0.25677 l -0.0508,8.73833 c -2.2042,1.41648 -3.554481,3.969 -3.557588,6.72509 -1.23e-4,4.33601 3.276947,7.85109 7.319427,7.85104 4.042482,5e-5 7.319553,-3.51502 7.31943,-7.85104 -0.0013,-2.84809 -1.440417,-5.47211 -3.760758,-6.85682 l 0.187493,-32.37973 c 2.20654,-1.41578 3.558676,-3.96959 3.561913,-6.72748 1.24e-4,-4.33601 -3.276948,-7.85109 -7.319429,-7.85104 -4.04248,-5e-5 -7.319551,3.51503 -7.319428,7.85104 0.0013,2.84639 1.438788,5.46908 3.756974,6.85444 l -0.08915,15.37799 -13.563868,-8.94391 v -11.29377 c 1.868058,-1.32519 2.985093,-3.51165 2.988074,-5.84878 -1.07e-4,-3.92755 -3.089542,-7.11147 -6.900667,-7.1117 z"
         style="color:#000000;font-style:normal;font-variant:normal;font-weight:normal;font-stretch:normal;font-size:medium;line-height:normal;font-family:sans-serif;font-variant-ligatures:normal;font-variant-position:normal;font-variant-caps:normal;font-variant-numeric:normal;font-variant-alternates:normal;font-feature-settings:normal;text-indent:0;text-align:start;text-decoration:none;text-decoration-line:none;text-decoration-style:solid;text-decoration-color:#000000;letter-spacing:normal;word-spacing:normal;text-transform:none;writing-mode:lr-tb;direction:ltr;text-orientation:mixed;dominant-baseline:auto;baseline-shift:baseline;text-anchor:start;white-space:normal;shape-padding:0;clip-rule:nonzero;display:none;overflow:visible;visibility:visible;opacity:1;isolation:auto;mix-blend-mode:normal;color-interpolation:sRGB;color-interpolation-filters:linearRGB;solid-color:#000000;solid-opacity:1;vector-effect:none;fill:#c9593a;fill-opacity:1;fill-rule:nonzero;stroke:none;stroke-width:6.87911;stroke-linecap:round;stroke-linejoin:round;stroke-miterlimit:4;stroke-dasharray:none;stroke-dashoffset:0;stroke-opacity:1;color-rendering:auto;image-rendering:auto;shape-rendering:auto;text-rendering:auto;enable-background:accumulate"
         inkscape:label="Dependances"
         sodipodi:nodetypes="ccccccccccccccccccccccc" />
      <g
         id="g1881"
         transform="translate(-82.872053,-8.964521)"
         style="display:none"
         inkscape:label="Dependence Source">
        <path
           inkscape:connector-curvature="0"
           id="rect1862"
           transform="matrix(0.22411303,0,0,0.22411303,8.3102594,177.73867)"
           d="m 65.058594,144.25586 a 17.019025,17.019025 0 0 0 -17.021485,17.02148 v 248.40821 a 17.019025,17.019025 0 0 0 17.021485,17.01172 H 313.45898 a 17.019025,17.019025 0 0 0 17.01954,-17.01172 V 296.7207 h -34.03125 v 95.94532 H 82.070312 V 178.29688 H 205.85352 v -34.04102 z"
           style="color:#000000;font-style:normal;font-variant:normal;font-weight:normal;font-stretch:normal;font-size:medium;line-height:normal;font-family:sans-serif;font-variant-ligatures:normal;font-variant-position:normal;font-variant-caps:normal;font-variant-numeric:normal;font-variant-alternates:normal;font-feature-settings:normal;text-indent:0;text-align:start;text-decoration:none;text-decoration-line:none;text-decoration-style:solid;text-decoration-color:#000000;letter-spacing:normal;word-spacing:normal;text-transform:none;writing-mode:lr-tb;direction:ltr;text-orientation:mixed;dominant-baseline:auto;baseline-shift:baseline;text-anchor:start;white-space:normal;shape-padding:0;clip-rule:nonzero;display:inline;overflow:visible;visibility:visible;opacity:0.99;isolation:auto;mix-blend-mode:normal;color-interpolation:sRGB;color-interpolation-filters:linearRGB;solid-color:#000000;solid-opacity:1;vector-effect:none;fill:#434343;fill-opacity:1;fill-rule:nonzero;stroke:none;stroke-width:34.0346;stroke-linecap:round;stroke-linejoin:round;stroke-miterlimit:4;stroke-dasharray:none;stroke-dashoffset:19.75;stroke-opacity:1;paint-order:normal;color-rendering:auto;image-rendering:auto;shape-rendering:auto;text-rendering:auto;enable-background:accumulate" />
        <path
           inkscape:connector-curvature="0"
           id="rect1869"
           d="M 86.740846,205.5315 H 58.905835 l 9.760677,9.76068 -37.017141,37.01714 8.313657,8.31366 37.01714,-37.01715 9.760677,9.76068 z"
           style="opacity:0.99;fill:#434343;fill-opacity:1;stroke:none;stroke-width:8.06421;stroke-linecap:round;stroke-linejoin:round;stroke-miterlimit:4;stroke-dasharray:none;stroke-dashoffset:19.75;stroke-opacity:1;paint-order:normal" />
      </g>
      <path
         sodipodi:nodetypes="ccccccccccccccccccccccc"
         inkscape:label="Dependence"
         inkscape:connector-curvature="0"
         id="path923"
         d="m 43.939728,213.42794 5.269514,8.45048 -18.943115,17.38426 4.01719,7.21353 19.583985,-17.12787 5.680065,9.10886 v -20.07137 l -15.607639,-4.95789 m -17.769841,-2.76596 c -0.464527,-0.15312 -0.908392,-0.0453 -1.23461,0.29857 -0.325346,0.34293 -0.507713,0.89332 -0.507648,1.53076 v 34.72964 c 4.09e-4,1.32703 0.777289,2.78575 1.742258,3.26186 l 28.601418,14.80397 c 1.213814,0.59917 2.205914,-0.13042 2.20644,-1.63468 v -18.43008 l -4.376825,-1.8297 v 15.461 L 27.936296,246.48039 v -30.36082 l 13.663636,4.77149 v -5.14604 l -15.430045,-5.08304"
         style="color:#000000;font-style:normal;font-variant:normal;font-weight:normal;font-stretch:normal;font-size:medium;line-height:normal;font-family:sans-serif;font-variant-ligatures:normal;font-variant-position:normal;font-variant-caps:normal;font-variant-numeric:normal;font-variant-alternates:normal;font-feature-settings:normal;text-indent:0;text-align:start;text-decoration:none;text-decoration-line:none;text-decoration-style:solid;text-decoration-color:#000000;letter-spacing:normal;word-spacing:normal;text-transform:none;writing-mode:lr-tb;direction:ltr;text-orientation:mixed;dominant-baseline:auto;baseline-shift:baseline;text-anchor:start;white-space:normal;shape-padding:0;clip-rule:nonzero;display:none;overflow:visible;visibility:visible;opacity:0.99;isolation:auto;mix-blend-mode:normal;color-interpolation:sRGB;color-interpolation-filters:linearRGB;solid-color:#000000;solid-opacity:1;vector-effect:none;fill:#000000;fill-opacity:0.706422;fill-rule:nonzero;stroke:none;stroke-width:5.84143;stroke-linecap:round;stroke-linejoin:round;stroke-miterlimit:4;stroke-dasharray:none;stroke-dashoffset:19.75;stroke-opacity:1;paint-order:normal;color-rendering:auto;image-rendering:auto;shape-rendering:auto;text-rendering:auto;enable-background:accumulate" />
    </g>
    <g
       id="g1227"
       transform="matrix(0.32587701,-0.00705501,0.0068072,0.33774068,-70.532101,230.46656)"
       style="display:none"
       inkscape:label="Puzzle">
      <path
         sodipodi:nodetypes="cccccccccsccccccccccccccccccccccsscccccccccc"
         inkscape:connector-curvature="0"
         id="path1138"
         transform="matrix(0.26458333,0,0,0.26458333,124.40752,-60.240964)"
         d="m 518.1543,309.71289 c -13.28846,-6.46665 -19.97552,-8.45706 -29.83654,-10.66812 0.41205,12.41901 6e-4,36.4064 6e-4,36.4064 0,0 25.42849,5.89754 40.75391,17.16797 22.7499,-19.47434 7.1606,-33.94263 -10.91797,-42.90625 z m 213.04356,-14.17815 -42.83067,32.80901 c 0,0 17.34608,28.39749 31.78953,36.93681 0.14101,-0.10586 0.29232,-0.20577 0.43164,-0.3125 6.34503,-4.86082 9.38079,-10.61189 9.5139,-16.98462 z m -75.14513,97.43792 c -12.59049,-0.0612 -26.06723,3.73234 -39.4263,14.17971 -21.92531,17.1465 -21.65245,23.87545 -6.84862,58.20632 1.85789,-1.87527 3.25761,-3.80459 5.75299,-5.75609 50.29296,-39.33127 102.26533,15.6289 102.26533,15.6289 0,0 20.3717,-10.46102 30.46988,-18.50396 10.01201,-7.97427 27.95822,-29.62693 27.95822,-29.62693 l 1.09562,-52.44992 c -1.26006,1.16235 -26.85595,28.7487 -27.95822,29.62662 -10.09818,8.04294 -30.46988,18.50396 -30.46988,18.50396 0,0 -28.03001,-29.6393 -62.83902,-29.80861 z m -294.85836,-5.02165 -1.09687,52.45039 c 0,0 31.84518,13.30528 46.50649,21.93385 2.91433,1.71518 6.31642,3.93641 9.89258,6.38477 15.23869,-7.95338 32.4761,-28.59502 32.4761,-28.59502 0,0 -27.23568,-21.54702 -42.03321,-30.25586 -4.93848,-2.90642 -24.41722,-13.12396 -45.74633,-21.91816 z m 136.57941,81.18177 c 0,0 -27.03486,69.07497 -86.45402,32.18948 -2.5299,-1.57048 -18.22773,-27.04446 -18.27961,-24.56058 l -1.09563,52.45021 c -0.15558,7.44806 3.96213,15.67276 18.27962,24.5606 59.41916,36.88549 86.45402,-32.18948 86.45402,-32.18948 0,0 36.9121,16.38927 52.8351,25.89065 16.0789,9.59443 42.92872,31.02545 42.92872,31.02545 0,0 31.57265,-18.73266 42.23946,-27.87115 10.56847,-9.05418 22.66297,-25.59768 22.66297,-25.59768 l 1.09563,-52.45067 c -15.32777,11.3884 -64.90243,53.46927 -64.90243,53.46927 0,0 -26.84983,-21.43102 -42.92873,-31.02545 -15.923,-9.50138 -52.8351,-25.89065 -52.8351,-25.89065 z"
         style="display:inline;opacity:0.997;fill:url(#radialGradient1223);fill-opacity:1;stroke:none;stroke-width:16.0504;stroke-linecap:round;stroke-linejoin:round;stroke-miterlimit:4;stroke-dasharray:none;stroke-dashoffset:0;stroke-opacity:1;paint-order:normal"
         inkscape:label="Tranche" />
      <path
         inkscape:connector-curvature="0"
         id="rect815-28-3-6-9-4-3-7-1-9"
         d="m 330.07348,38.885366 c 0,0 -4.74805,5.728848 -7.39706,7.838707 -2.67181,2.128026 -8.06236,4.89602 -8.06236,4.89602 0,0 -13.75091,-14.54167 -27.05759,-4.135271 -13.89049,10.862931 11.06384,17.310912 11.06384,17.310912 0,0 -3.20054,4.377403 -5.99678,6.772993 -2.82226,2.41789 -11.1765,7.373907 -11.1765,7.373907 0,0 -7.10328,-5.67005 -11.35749,-8.20858 -4.21296,-2.51391 -13.97891,-6.850387 -13.97891,-6.850387 0,0 -7.15319,18.276137 -22.87451,8.516857 -3.78817,-2.35158 -5.05962,-4.53936 -4.83596,-6.49828 0.22366,-1.958918 1.94244,-3.688971 4.13474,-5.125076 4.3846,-2.872211 10.66328,-4.568637 10.66328,-4.568637 0,0 -7.20611,-5.700604 -11.12129,-8.004818 -3.87914,-2.282975 -12.10336,-5.799306 -12.10336,-5.799306 0,0 5.89863,-5.632622 8.94777,-7.703365 3.02317,-2.053146 8.94041,-4.807382 8.94041,-4.807382 0,0 11.45182,14.274784 25.36125,4.085305 13.34488,-9.775925 -9.6147,-15.097669 -9.6147,-15.097669 0,0 3.46815,-3.759404 6.16858,-5.695273 2.67796,-1.919719 10.06403,-5.657359 10.06403,-5.657359 0,0 6.32857,4.432793 9.95015,6.316862 3.65138,1.899587 11.70481,4.956568 11.70481,4.956568 0,0 6.17711,-13.647776 20.87848,-6.269109 3.79709,1.905774 5.33088,3.739928 5.49569,5.419162 0.16481,1.679234 -1.03935,3.203547 -2.71814,4.489638 -3.35759,2.572183 -8.61373,4.191479 -8.61373,4.191479 0,0 6.60939,4.614149 10.53211,6.667499 3.95647,2.071037 13.00324,5.584603 13.00324,5.584603 v 0"
         style="display:inline;opacity:0.997;fill:url(#linearGradient1215);fill-opacity:1;stroke:none;stroke-width:4.24666;stroke-linecap:round;stroke-linejoin:round;stroke-miterlimit:4;stroke-dasharray:none;stroke-dashoffset:0;stroke-opacity:1;paint-order:normal"
         inkscape:label="Face"
         sodipodi:nodetypes="ccccccccccsscccccscccccssccccc" />
    </g>
  </g>
</svg>
