<?xml version="1.0" encoding="UTF-8" standalone="no"?>
<svg
   xmlns:dc="http://purl.org/dc/elements/1.1/"
   xmlns:cc="http://creativecommons.org/ns#"
   xmlns:rdf="http://www.w3.org/1999/02/22-rdf-syntax-ns#"
   xmlns:svg="http://www.w3.org/2000/svg"
   xmlns="http://www.w3.org/2000/svg"
   xmlns:xlink="http://www.w3.org/1999/xlink"
   xmlns:sodipodi="http://sodipodi.sourceforge.net/DTD/sodipodi-0.dtd"
   xmlns:inkscape="http://www.inkscape.org/namespaces/inkscape"
   id="svg8"
   version="1.1"
   viewBox="0 0 67.733332 67.733335"
   height="256"
   width="256"
   sodipodi:docname="omx_icon.svg"
   inkscape:export-filename="D:\Atelier\Code\Cpp\OpenModMan\art\omx_icon256.png"
   inkscape:export-xdpi="96.000008"
   inkscape:export-ydpi="96.000008"
   inkscape:version="1.0.1 (3bc2e813f5, 2020-09-07)">
  <defs
     id="defs2">
    <rect
       x="61.686215"
       y="190.56425"
       width="14.935423"
       height="43.374023"
       id="rect884" />
    <rect
       x="41.784148"
       y="186.73985"
       width="28.183279"
       height="69.036995"
       id="rect878" />
    <linearGradient
       inkscape:collect="always"
       id="linearGradient1221">
      <stop
         style="stop-color:#c55c00;stop-opacity:1"
         offset="0"
         id="stop1217" />
      <stop
         style="stop-color:#9a2a00;stop-opacity:1"
         offset="1"
         id="stop1219" />
    </linearGradient>
    <linearGradient
       inkscape:collect="always"
       id="linearGradient1213">
      <stop
         style="stop-color:#ffa100;stop-opacity:1"
         offset="0"
         id="stop1209" />
      <stop
         style="stop-color:#ffde44;stop-opacity:1"
         offset="1"
         id="stop1211" />
    </linearGradient>
    <linearGradient
       inkscape:collect="always"
       xlink:href="#linearGradient1213"
       id="linearGradient1215"
       x1="322.67654"
       y1="46.724079"
       x2="219.23766"
       y2="32.915741"
       gradientUnits="userSpaceOnUse" />
    <radialGradient
       inkscape:collect="always"
       xlink:href="#linearGradient1221"
       id="radialGradient1223"
       cx="569.43958"
       cy="428.99405"
       fx="569.43958"
       fy="428.99405"
       r="208.24622"
       gradientTransform="matrix(-0.28090941,1.0693816,-3.9313027,-0.89360895,2415.906,203.39878)"
       gradientUnits="userSpaceOnUse" />
    <rect
       x="61.686215"
       y="190.56425"
       width="14.935423"
       height="43.374023"
       id="rect913" />
  </defs>
  <sodipodi:namedview
     id="base"
     pagecolor="#ffffff"
     bordercolor="#666666"
     borderopacity="1.0"
     inkscape:pageopacity="0.0"
     inkscape:pageshadow="2"
     inkscape:zoom="1.6110649"
     inkscape:cx="151.61562"
     inkscape:cy="118.42139"
     inkscape:document-units="mm"
     inkscape:current-layer="layer1"
     showgrid="false"
     inkscape:window-width="1399"
     inkscape:window-height="863"
     inkscape:window-x="290"
     inkscape:window-y="161"
     inkscape:window-maximized="0"
     inkscape:snap-smooth-nodes="true"
     units="px"
     inkscape:pagecheckerboard="true"
     inkscape:showpageshadow="false"
     inkscape:snap-global="false"
     inkscape:snap-nodes="true"
     inkscape:snap-others="false"
     inkscape:snap-bbox="true"
     inkscape:bbox-nodes="true"
     inkscape:document-rotation="0" />
  <metadata
     id="metadata5">
    <rdf:RDF>
      <cc:Work
         rdf:about="">
        <dc:format>image/svg+xml</dc:format>
        <dc:type
           rdf:resource="http://purl.org/dc/dcmitype/StillImage" />
        <dc:title />
      </cc:Work>
    </rdf:RDF>
  </metadata>
  <g
     inkscape:label="Calque 1"
     inkscape:groupmode="layer"
     id="layer1"
     transform="translate(0,-229.26665)">
    <g
       id="g1227"
       transform="matrix(0.60053614,-0.0130012,0.01254451,0.62239888,-131.8898,242.702)"
       style="display:inline"
       inkscape:label="Puzzle">
      <path
         sodipodi:nodetypes="cccccccccsccccccccccccccccccccccsscccccccccc"
         inkscape:connector-curvature="0"
         id="path1138"
         transform="matrix(0.26458333,0,0,0.26458333,124.40752,-60.240964)"
         d="m 518.1543,309.71289 c -13.28846,-6.46665 -19.97552,-8.45706 -29.83654,-10.66812 0.41205,12.41901 6e-4,36.4064 6e-4,36.4064 0,0 25.42849,5.89754 40.75391,17.16797 22.7499,-19.47434 7.1606,-33.94263 -10.91797,-42.90625 z m 213.04356,-14.17815 -42.83067,32.80901 c 0,0 17.34608,28.39749 31.78953,36.93681 0.14101,-0.10586 0.29232,-0.20577 0.43164,-0.3125 6.34503,-4.86082 9.38079,-10.61189 9.5139,-16.98462 z m -75.14513,97.43792 c -12.59049,-0.0612 -26.06723,3.73234 -39.4263,14.17971 -21.92531,17.1465 -21.65245,23.87545 -6.84862,58.20632 1.85789,-1.87527 3.25761,-3.80459 5.75299,-5.75609 50.29296,-39.33127 102.26533,15.6289 102.26533,15.6289 0,0 20.3717,-10.46102 30.46988,-18.50396 10.01201,-7.97427 27.95822,-29.62693 27.95822,-29.62693 l 1.09562,-52.44992 c -1.26006,1.16235 -26.85595,28.7487 -27.95822,29.62662 -10.09818,8.04294 -30.46988,18.50396 -30.46988,18.50396 0,0 -28.03001,-29.6393 -62.83902,-29.80861 z m -294.85836,-5.02165 -1.09687,52.45039 c 0,0 31.84518,13.30528 46.50649,21.93385 2.91433,1.71518 6.31642,3.93641 9.89258,6.38477 15.23869,-7.95338 32.4761,-28.59502 32.4761,-28.59502 0,0 -27.23568,-21.54702 -42.03321,-30.25586 -4.93848,-2.90642 -24.41722,-13.12396 -45.74633,-21.91816 z m 136.57941,81.18177 c 0,0 -27.03486,69.07497 -86.45402,32.18948 -2.5299,-1.57048 -18.22773,-27.04446 -18.27961,-24.56058 l -1.09563,52.45021 c -0.15558,7.44806 3.96213,15.67276 18.27962,24.5606 59.41916,36.88549 86.45402,-32.18948 86.45402,-32.18948 0,0 36.9121,16.38927 52.8351,25.89065 16.0789,9.59443 42.92872,31.02545 42.92872,31.02545 0,0 31.57265,-18.73266 42.23946,-27.87115 10.56847,-9.05418 22.66297,-25.59768 22.66297,-25.59768 l 1.09563,-52.45067 c -15.32777,11.3884 -64.90243,53.46927 -64.90243,53.46927 0,0 -26.84983,-21.43102 -42.92873,-31.02545 -15.923,-9.50138 -52.8351,-25.89065 -52.8351,-25.89065 z"
         style="display:inline;opacity:0.997;fill:url(#radialGradient1223);fill-opacity:1;stroke:none;stroke-width:16.0504;stroke-linecap:round;stroke-linejoin:round;stroke-miterlimit:4;stroke-dasharray:none;stroke-dashoffset:0;stroke-opacity:1;paint-order:normal"
         inkscape:label="Tranche" />
      <path
         inkscape:connector-curvature="0"
         id="rect815-28-3-6-9-4-3-7-1-9"
         d="m 330.07348,38.885366 c 0,0 -4.74805,5.728848 -7.39706,7.838707 -2.67181,2.128026 -8.06236,4.89602 -8.06236,4.89602 0,0 -13.75091,-14.54167 -27.05759,-4.135271 -13.89049,10.862931 11.06384,17.310912 11.06384,17.310912 0,0 -3.20054,4.377403 -5.99678,6.772993 -2.82226,2.41789 -11.1765,7.373907 -11.1765,7.373907 0,0 -7.10328,-5.67005 -11.35749,-8.20858 -4.21296,-2.51391 -13.97891,-6.850387 -13.97891,-6.850387 0,0 -7.15319,18.276137 -22.87451,8.516857 -3.78817,-2.35158 -5.05962,-4.53936 -4.83596,-6.49828 0.22366,-1.958918 1.94244,-3.688971 4.13474,-5.125076 4.3846,-2.872211 10.66328,-4.568637 10.66328,-4.568637 0,0 -7.20611,-5.700604 -11.12129,-8.004818 -3.87914,-2.282975 -12.10336,-5.799306 -12.10336,-5.799306 0,0 5.89863,-5.632622 8.94777,-7.703365 3.02317,-2.053146 8.94041,-4.807382 8.94041,-4.807382 0,0 11.45182,14.274784 25.36125,4.085305 13.34488,-9.775925 -9.6147,-15.097669 -9.6147,-15.097669 0,0 3.46815,-3.759404 6.16858,-5.695273 2.67796,-1.919719 10.06403,-5.657359 10.06403,-5.657359 0,0 6.32857,4.432793 9.95015,6.316862 3.65138,1.899587 11.70481,4.956568 11.70481,4.956568 0,0 6.17711,-13.647776 20.87848,-6.269109 3.79709,1.905774 5.33088,3.739928 5.49569,5.419162 0.16481,1.679234 -1.03935,3.203547 -2.71814,4.489638 -3.35759,2.572183 -8.61373,4.191479 -8.61373,4.191479 0,0 6.60939,4.614149 10.53211,6.667499 3.95647,2.071037 13.00324,5.584603 13.00324,5.584603 v 0"
         style="display:inline;opacity:0.997;fill:url(#linearGradient1215);fill-opacity:1;stroke:none;stroke-width:4.24666;stroke-linecap:round;stroke-linejoin:round;stroke-miterlimit:4;stroke-dasharray:none;stroke-dashoffset:0;stroke-opacity:1;paint-order:normal"
         inkscape:label="Face"
         sodipodi:nodetypes="ccccccccccsscccccscccccssccccc" />
    </g>
    <g
       aria-label="&lt; /&gt;"
       id="g936"
       style="font-style:normal;font-weight:normal;font-size:14.1111px;line-height:1.25;font-family:sans-serif;fill:#ffffff;fill-opacity:1;stroke:#ffffff;stroke-width:1.2301;stroke-miterlimit:4;stroke-dasharray:none;stroke-opacity:1"
       transform="matrix(2.4274996,0,0,2.7183794,107.18445,-382.10486)">
      <path
         d="m -36.772881,234.91721 -6.628359,-2.76297 v -1.3987 l 6.628359,-2.76986 v 1.81901 l -4.092771,1.64675 4.092771,1.63987 z"
         style="font-style:normal;font-variant:normal;font-weight:normal;font-stretch:normal;font-size:14.1111px;font-family:Impact;-inkscape-font-specification:Impact;fill:#ffffff;fill-opacity:1;stroke:#ffffff;stroke-width:1.2301;stroke-miterlimit:4;stroke-dasharray:none;stroke-opacity:1"
         id="path930" />
      <path
         d="m -28.339295,225.78082 -3.307289,11.5824 h -2.108396 l 3.327959,-11.5824 z"
         style="font-style:normal;font-variant:normal;font-weight:normal;font-stretch:normal;font-size:14.1111px;font-family:Impact;-inkscape-font-specification:Impact;fill:#ffffff;fill-opacity:1;stroke:#ffffff;stroke-width:1.2301;stroke-miterlimit:4;stroke-dasharray:none;stroke-opacity:1"
         id="path932" />
      <path
         d="m -27.80875,227.98568 6.628359,2.75608 v 1.40559 l -6.628359,2.76986 v -1.81901 l 4.092771,-1.64676 -4.092771,-1.63986 z"
         style="font-style:normal;font-variant:normal;font-weight:normal;font-stretch:normal;font-size:14.1111px;font-family:Impact;-inkscape-font-specification:Impact;fill:#ffffff;fill-opacity:1;stroke:#ffffff;stroke-width:1.2301;stroke-miterlimit:4;stroke-dasharray:none;stroke-opacity:1"
         id="path934" />
    </g>
    <g
       aria-label="&lt; /&gt;"
       id="text921"
       style="font-style:normal;font-weight:normal;font-size:14.1111px;line-height:1.25;font-family:sans-serif;fill:#000000;fill-opacity:1;stroke:none;stroke-width:4.23333;stroke-miterlimit:4;stroke-dasharray:none;stroke-opacity:1"
       transform="matrix(2.4274996,0,0,2.7183794,107.18445,-382.10486)">
      <path
         d="m -36.772881,234.91721 -6.628359,-2.76297 v -1.3987 l 6.628359,-2.76986 v 1.81901 l -4.092771,1.64675 4.092771,1.63987 z"
         style="font-style:normal;font-variant:normal;font-weight:normal;font-stretch:normal;font-size:14.1111px;font-family:Impact;-inkscape-font-specification:Impact;stroke:none;stroke-width:4.23333;stroke-miterlimit:4;stroke-dasharray:none;stroke-opacity:1"
         id="path923" />
      <path
         d="m -28.339295,225.78082 -3.307289,11.5824 h -2.108396 l 3.327959,-11.5824 z"
         style="font-style:normal;font-variant:normal;font-weight:normal;font-stretch:normal;font-size:14.1111px;font-family:Impact;-inkscape-font-specification:Impact;stroke:none;stroke-width:4.23333;stroke-miterlimit:4;stroke-dasharray:none;stroke-opacity:1"
         id="path925" />
      <path
         d="m -27.80875,227.98568 6.628359,2.75608 v 1.40559 l -6.628359,2.76986 v -1.81901 l 4.092771,-1.64676 -4.092771,-1.63986 z"
         style="font-style:normal;font-variant:normal;font-weight:normal;font-stretch:normal;font-size:14.1111px;font-family:Impact;-inkscape-font-specification:Impact;stroke:none;stroke-width:4.23333;stroke-miterlimit:4;stroke-dasharray:none;stroke-opacity:1"
         id="path927" />
    </g>
  </g>
</svg>
