<?xml version="1.0" encoding="UTF-8" standalone="no"?>
<!-- Created with Inkscape (http://www.inkscape.org/) -->

<svg
   width="180mm"
   height="180mm"
   viewBox="0 0 180 180"
   version="1.1"
   id="svg4392"
   inkscape:version="1.1.1 (3bf5ae0d25, 2021-09-20)"
   sodipodi:docname="puzzles.svg"
   xmlns:inkscape="http://www.inkscape.org/namespaces/inkscape"
   xmlns:sodipodi="http://sodipodi.sourceforge.net/DTD/sodipodi-0.dtd"
   xmlns:xlink="http://www.w3.org/1999/xlink"
   xmlns="http://www.w3.org/2000/svg"
   xmlns:svg="http://www.w3.org/2000/svg">
  <sodipodi:namedview
     id="namedview4394"
     pagecolor="#ffffff"
     bordercolor="#666666"
     borderopacity="1.0"
     inkscape:pageshadow="2"
     inkscape:pageopacity="0.0"
     inkscape:pagecheckerboard="0"
     inkscape:document-units="mm"
     showgrid="false"
     inkscape:snap-global="false"
     inkscape:zoom="0.36081386"
     inkscape:cx="58.201755"
     inkscape:cy="642.99082"
     inkscape:current-layer="layer1"
     width="209mm" />
  <defs
     id="defs4389">
    <linearGradient
       inkscape:collect="always"
       id="linearGradient17756">
      <stop
         style="stop-color:#ffa211;stop-opacity:1"
         offset="0"
         id="stop17752" />
      <stop
         style="stop-color:#ffdf78;stop-opacity:1"
         offset="1"
         id="stop17754" />
    </linearGradient>
    <linearGradient
       inkscape:collect="always"
       id="linearGradient16678">
      <stop
         style="stop-color:#1b5cff;stop-opacity:1"
         offset="0"
         id="stop16674" />
      <stop
         style="stop-color:#7e8fff;stop-opacity:1"
         offset="1"
         id="stop16676" />
    </linearGradient>
    <linearGradient
       inkscape:collect="always"
       xlink:href="#linearGradient16678"
       id="linearGradient16680"
       x1="104.86133"
       y1="119.52724"
       x2="74.796181"
       y2="206.05617"
       gradientUnits="userSpaceOnUse"
       spreadMethod="repeat"
       gradientTransform="translate(-29.740095,1.7084081)" />
    <linearGradient
       inkscape:collect="always"
       xlink:href="#linearGradient17756"
       id="linearGradient17758"
       x1="159.85851"
       y1="49.86412"
       x2="157.65863"
       y2="115.12746"
       gradientUnits="userSpaceOnUse"
       spreadMethod="repeat"
       gradientTransform="translate(-29.740095,1.7084081)" />
  </defs>
  <g
     inkscape:label="Calque 1"
     inkscape:groupmode="layer"
     id="layer1">
    <path
       id="path12302"
       style="display:none;stroke:none;stroke-width:9.88433;stroke-linecap:square;stroke-linejoin:round"
       d="m 22.821235,21.237383 v 73.204831 c 2.413047,-0.06407 11.945146,1.803681 19.070153,1.745115 -0.463804,-1.756241 -1.444731,-4.394009 -2.035535,-7.392831 -0.626401,-3.179514 -0.840369,-7.044394 1.566831,-10.26759 2.407197,-3.223194 6.815648,-4.80074 13.190926,-4.80074 6.367579,0 10.790878,1.533273 13.343887,4.625041 2.55301,3.091767 2.616359,6.953482 2.131137,10.136848 -0.447725,2.937354 -1.337463,5.47351 -1.843815,7.298778 5.718434,-0.06851 12.253838,-3.575527 21.998657,-3.420978 0.0338,-0.351547 0.07517,-0.796121 0.106971,-1.127064 0.633449,-6.592321 3.214983,-13.602803 3.464903,-22.431706 -1.83588,0.624351 -4.410045,1.744253 -7.387145,2.517159 -3.250189,0.843806 -7.206967,1.322848 -10.585918,-1.03663 -3.378951,-2.359469 -4.984192,-6.871702 -4.984192,-13.484447 0,-6.605524 1.570599,-11.103239 4.867405,-13.531474 3.296806,-2.428232 7.228197,-2.086541 10.437087,-1.363223 3.002725,0.676846 5.629201,1.711362 7.367511,2.191596 C 93.398272,31.500618 90.51021,23.115946 90.216604,21.237383 Z m 73.939671,0 c 0.546272,3.779846 3.286624,12.623461 3.286624,24.641905 0,0.878443 -0.157299,1.86704 -0.73019,2.804996 -0.572879,0.937959 -1.579894,1.64655 -2.474783,1.939417 -1.789771,0.585737 -3.069027,0.22079 -4.349607,-0.09405 -2.561148,-0.629677 -5.278043,-1.755333 -7.749913,-2.312519 -2.47187,-0.557187 -4.219898,-0.449922 -5.183664,0.259931 -0.963766,0.709854 -2.236555,2.723349 -2.236555,8.326107 0,5.595543 1.278097,7.527094 2.221053,8.185547 0.942957,0.65846 2.747272,0.730282 5.259626,0.07803 2.512353,-0.652248 5.271529,-1.892541 7.782988,-2.667537 1.255739,-0.387496 2.41648,-0.82082 4.195609,-0.467154 0.889561,0.176832 2.020523,0.748993 2.714564,1.703255 0.694042,0.95426 0.876952,2.015461 0.876952,2.896463 0,10.640285 -2.963239,18.809141 -3.589449,25.326104 -0.01802,0.187555 -0.04274,0.449509 -0.06149,0.643887 6.744239,0.171985 13.845629,3.064317 18.608159,3.361034 -0.45283,-1.860849 -1.33421,-4.542716 -1.79524,-7.618656 -0.49592,-3.308635 -0.50847,-7.252001 1.98231,-10.506334 2.49077,-3.254335 6.98889,-4.946986 13.42967,-4.946986 6.43464,0 10.88466,1.686274 13.08809,5.124752 2.20343,3.43848 1.61221,7.326119 0.73432,10.554911 -0.78283,2.879178 -1.83187,5.314434 -2.44326,7.093625 7.02787,-0.328493 18.43751,-1.910694 22.47873,-1.898076 V 21.237383 Z m 32.186664,58.018163 c -5.36399,0 -7.41004,1.254493 -8.29458,2.410188 -0.88453,1.155697 -1.10283,3.084835 -0.72296,5.619295 0.37989,2.534459 1.30636,5.297757 1.85002,7.7618 0.2718,1.23202 0.59003,2.347876 0.18707,4.017325 -0.20148,0.834721 -0.76215,1.920376 -1.74563,2.592096 -0.98347,0.67167 -2.09222,0.80297 -2.95899,0.74207 -5.03031,-0.35317 -13.1847,-3.265027 -21.151683,-3.44837 -0.574553,6.25589 3.076816,16.1847 3.076816,21.46587 0,0.87273 -0.17916,1.89087 -0.7953,2.81844 -0.61613,0.92757 -1.636917,1.56114 -2.501657,1.81436 -1.72947,0.50645 -2.94839,0.17143 -4.203361,-0.12093 -2.509962,-0.58472 -5.208532,-1.61723 -7.65638,-2.09186 -2.447849,-0.47463 -4.198541,-0.32357 -5.204849,0.43977 -1.006309,0.76333 -2.254126,2.7826 -2.254126,8.24807 0,5.45792 1.230551,7.18225 2.125451,7.76904 0.894903,0.58656 2.771071,0.63585 5.324223,-0.01 2.55315,-0.64567 5.317292,-1.83139 8.042918,-2.38073 1.362811,-0.27467 2.879514,-0.55337 4.675685,0.33796 1.796169,0.89133 2.781226,3.1826 2.781226,5.00176 0,5.77503 -3.058305,15.39151 -2.490287,18.97921 h 65.774274 v -61.09137 c -4.22669,-0.0184 -18.54412,1.53636 -24.44347,1.94045 -0.85651,0.0587 -1.86504,-0.01 -2.88302,-0.59583 -1.01799,-0.58586 -1.75618,-1.727058 -1.99626,-2.654097 -0.48016,-1.854081 -0.0195,-3.015144 0.3576,-4.263824 0.75428,-2.497362 2.00075,-5.241602 2.69131,-7.781435 0.69061,-2.539834 0.65012,-4.451374 0.061,-5.370732 -0.58913,-0.919356 -2.2749,-2.148706 -7.64501,-2.148706 z m -74.33396,0.935342 c -5.34461,0 -7.278936,1.224283 -8.011398,2.205035 -0.732459,0.98075 -0.880459,2.722774 -0.402558,5.148522 0.477901,2.425747 1.503698,5.100799 2.099611,7.576283 0.297958,1.237739 0.638953,2.423776 0.177769,4.136696 -0.230593,0.856466 -0.830919,1.892486 -1.755966,2.531116 -0.925047,0.63864 -1.957173,0.82423 -2.826184,0.82423 -6.798452,0 -18.767962,-1.77426 -21.073649,-1.70738 v 60.31569 h 67.652716 c -0.692602,-4.39625 2.775054,-11.73793 2.643251,-17.91466 -1.609447,0.35669 -4.417613,1.46236 -7.509618,2.2443 -3.184406,0.8053 -7.046912,1.3832 -10.455177,-0.85162 -3.408265,-2.23482 -5.04517,-6.68338 -5.04517,-13.17594 2e-6,-6.485 1.578578,-10.94497 4.812628,-13.39815 3.234044,-2.45319 7.136045,-2.25667 10.342004,-1.63505 3.06869,0.59502 5.799545,1.6068 7.554576,2.04897 0.09633,-5.28508 -3.661947,-14.21451 -3.174471,-19.714554 -10.354984,-0.145505 -18.136171,3.452504 -23.920502,3.452504 -0.884333,0 -2.066679,-0.28418 -2.951242,-1.08986 -0.88456,-0.80568 -1.236009,-1.862233 -1.345652,-2.640663 -0.21929,-1.556859 0.105179,-2.591853 0.404108,-3.755843 0.597858,-2.32796 1.512745,-4.93686 1.869136,-7.275007 0.356391,-2.338149 0.139941,-3.99787 -0.72657,-5.047239 -0.86651,-1.049367 -3.00532,-2.27738 -8.357629,-2.27738 z"
       sodipodi:nodetypes="cccsssssccscsssssccccssssssssssssssccsssssccccssssssccssssssscsssscccsssscsssssssssccccsssssccssssssss" />
    <path
       id="path12751"
       style="display:inline;fill:url(#linearGradient16680);fill-opacity:1;stroke:none;stroke-width:9.88433;stroke-linecap:square;stroke-linejoin:round"
       d="m 4.0805785,32.47864 v 73.20485 c 2.413047,-0.0641 11.9451465,1.80368 19.0701535,1.74512 -0.463804,-1.75624 -1.444731,-4.39402 -2.035535,-7.39286 -0.626401,-3.179509 -0.84037,-7.044389 1.566831,-10.267585 2.407197,-3.223194 6.815648,-4.80074 13.190926,-4.80074 6.367579,0 10.790878,1.533273 13.343887,4.625041 2.55301,3.091767 2.616359,6.953482 2.131137,10.136848 -0.447725,2.937366 -1.337464,5.473526 -1.843815,7.298796 5.718434,-0.0685 12.253838,-3.57553 21.998652,-3.42098 0.0338,-0.35154 0.0752,-0.79613 0.10698,-1.12707 0.63344,-6.592331 3.21498,-14.661147 3.4649,-23.490049 -1.83588,0.624351 -4.41005,1.215086 -7.387146,1.987992 -3.250189,0.843806 -6.876187,0.372676 -9.527585,-1.565796 -2.444184,-1.786978 -4.455025,-5.579994 -4.455025,-11.367781 0,-5.138933 2.265397,-9.681363 4.867405,-11.414807 2.431782,-1.620041 5.640697,-1.557375 8.849587,-0.834057 3.002724,0.676847 5.629204,2.240529 7.367514,2.720763 -0.13183,-12.59945 -3.01989,-24.159122 -3.3135,-26.037685 z M 124.02933,99.711743 c -102.512951,-64.357828 -51.256475,-32.178913 0,0 z M 110.20692,88.380137 c -4.63069,0 -7.67997,1.661128 -8.82375,3.468521 -1.06396,1.681242 -1.886185,3.409873 -1.781295,6.677628 0.0822,2.561454 1.306365,5.297774 1.850025,7.761824 0.2718,1.23202 0.59003,2.34787 0.18707,4.01732 -0.20148,0.83472 -0.76215,1.92038 -1.745635,2.5921 -0.98347,0.67167 -2.09222,0.80297 -2.95899,0.74207 -5.03031,-0.35317 -11.5972,-3.26503 -19.56418,-3.44837 -0.57456,6.25589 3.07681,16.1847 3.07681,21.46587 0,0.87273 -0.17916,1.89087 -0.7953,2.81844 -0.61613,0.92757 -1.63691,1.56114 -2.50166,1.81436 -1.72947,0.50645 -2.94838,0.17143 -4.20336,-0.12093 -2.50996,-0.58472 -5.208528,-1.61723 -7.656377,-2.09186 -2.447848,-0.47463 -4.19854,-0.32357 -5.204848,0.43977 -1.006309,0.76333 -2.254126,2.7826 -2.254126,8.24807 0,5.45792 1.230551,7.18225 2.125451,7.76904 0.894903,0.58656 2.771071,0.63585 5.324223,-0.01 2.55315,-0.64567 5.317287,-1.83139 8.042917,-2.38073 1.36281,-0.27467 2.87951,-0.55337 4.67569,0.33796 1.79616,0.89133 2.78122,3.1826 2.78122,5.00176 0,5.77503 -3.0583,15.39151 -2.49029,18.97921 H 144.0648 v -61.09137 c -4.22669,-0.0184 -16.95662,1.53636 -22.85597,1.94045 -0.85651,0.0587 -1.86505,-0.01 -2.88302,-0.59583 -1.01799,-0.58586 -1.75618,-1.72706 -1.99626,-2.6541 -0.48017,-1.85408 -0.0195,-3.01514 0.3576,-4.26382 0.75428,-2.49737 1.90908,-4.59999 2.59964,-7.139826 0.69061,-2.539834 0.0792,-5.070234 -0.90569,-6.541532 -1.20993,-1.80748 -3.62903,-3.736205 -8.17418,-3.736205 z m -74.333966,3.052008 c -5.34461,0 -7.278936,1.224283 -8.011398,2.205035 -0.732459,0.98075 -0.880459,2.722774 -0.402558,5.148522 0.477901,2.425748 1.503698,5.100818 2.099611,7.576298 0.297958,1.23774 0.638953,2.42378 0.177769,4.1367 -0.230593,0.85647 -0.830919,1.89249 -1.755966,2.53112 -0.925047,0.63864 -1.957173,0.82424 -2.826184,0.82424 -6.798453,0 -18.7679625,-1.77427 -21.0736495,-1.70739 v 60.31569 H 71.733295 c -0.6926,-4.39625 2.77505,-11.73793 2.64325,-17.91466 -1.60945,0.35669 -4.417612,1.46236 -7.509617,2.2443 -3.184406,0.8053 -7.046913,1.38321 -10.455177,-0.85162 -3.408265,-2.23482 -5.04517,-6.68338 -5.04517,-13.17594 2e-6,-6.485 1.578578,-10.94497 4.812628,-13.39815 3.234044,-2.45319 7.136045,-2.25667 10.342004,-1.63505 3.06869,0.59502 5.799542,1.6068 7.554572,2.04897 0.0963,-5.28508 -3.66194,-14.21451 -3.17447,-19.71456 -10.354981,-0.1455 -18.136168,3.45251 -23.920499,3.45251 -0.884333,0 -2.066679,-0.28418 -2.951242,-1.08986 -0.88456,-0.80568 -1.236009,-1.86224 -1.345652,-2.64067 -0.21929,-1.55686 0.105179,-2.59185 0.404108,-3.75584 0.597858,-2.32796 1.512745,-4.93687 1.869136,-7.275026 0.356391,-2.338149 0.139941,-3.99787 -0.72657,-5.047239 -0.86651,-1.049366 -3.00532,-2.27738 -8.357629,-2.27738 z"
       sodipodi:nodetypes="cccsssssccscssssscccccssssssccssssssscsssscccsssscsssssssssccccsssssccssssssss" />
    <path
       d="m 117.248,6.5372311 c -1.16518,3.6370349 -1.41759,10.4089129 -6.68373,21.2121899 -0.38491,0.789624 -0.95948,1.609341 -1.88543,2.201438 -0.92595,0.592103 -2.14163,0.787803 -3.07437,0.658943 -1.86545,-0.25771 -2.85546,-1.146291 -3.86861,-1.990412 -2.026285,-1.688233 -3.975235,-3.890537 -5.953035,-5.474489 -1.9778,-1.583953 -4.53321,-1.721477 -6.59828,-1.384122 -3.00246,0.490487 -5.02288,3.304895 -6.89583,7.301562 -1.60954,3.434589 -1.74893,7.590763 -1.15114,9.30522 0.67828,1.945253 2.45379,4.191898 4.99792,4.706438 2.54412,0.514539 5.56778,0.608643 8.16488,1.01245 1.29857,0.201917 2.53182,0.321007 3.97609,1.418477 0.72214,0.548731 1.48804,1.558598 1.69379,2.720489 0.205725,1.16188 -0.0948,2.195931 -0.48087,2.987855 -4.66227,9.56446 -9.74592,13.230661 -13.16435,18.81428 -0.0983,0.160715 -0.23534,0.385352 -0.33741,0.551841 5.98699,3.109728 14.432655,10.444311 18.583655,12.797821 0.4083,-1.87112 0.79118,-4.668007 1.72454,-7.634941 1.00397,-3.191387 2.63087,-5.99569 5.21419,-7.380327 2.58332,-1.384637 6.88929,-1.939831 11.15359,0.522162 4.2643,2.461993 6.04266,5.81597 5.78336,10.238917 -0.25929,4.422947 -5.65501,10.824398 -6.98417,12.155818 6.46122,2.784125 19.78885,7.520598 23.41593,9.302699 l 31.73616,-65.10547 z"
       style="display:inline;fill:url(#linearGradient17758);fill-opacity:1;stroke:none;stroke-width:9.88433;stroke-linecap:square;stroke-linejoin:round"
       id="path13033"
       sodipodi:nodetypes="cssssssssssssssccszzzcccc" />
  </g>
</svg>
