<?xml version="1.0" encoding="UTF-8" standalone="no"?>
<svg
   id="svg8"
   version="1.1"
   viewBox="0 0 67.733332 67.733335"
   height="256"
   width="256"
   sodipodi:docname="rouage.svg"
   inkscape:export-filename="D:\Atelier\Code\Cpp\OpenModMan\art\omb_icon16.png"
   inkscape:export-xdpi="6.0000005"
   inkscape:export-ydpi="6.0000005"
   inkscape:version="1.1.1 (3bf5ae0d25, 2021-09-20)"
   xmlns:inkscape="http://www.inkscape.org/namespaces/inkscape"
   xmlns:sodipodi="http://sodipodi.sourceforge.net/DTD/sodipodi-0.dtd"
   xmlns:xlink="http://www.w3.org/1999/xlink"
   xmlns="http://www.w3.org/2000/svg"
   xmlns:svg="http://www.w3.org/2000/svg"
   xmlns:rdf="http://www.w3.org/1999/02/22-rdf-syntax-ns#"
   xmlns:cc="http://creativecommons.org/ns#"
   xmlns:dc="http://purl.org/dc/elements/1.1/">
  <defs
     id="defs2">
    <linearGradient
       inkscape:collect="always"
       id="linearGradient2232">
      <stop
         style="stop-color:#5372a3;stop-opacity:1"
         offset="0"
         id="stop2228" />
      <stop
         style="stop-color:#a9bcdd;stop-opacity:1"
         offset="1"
         id="stop2230" />
    </linearGradient>
    <linearGradient
       inkscape:collect="always"
       id="linearGradient898">
      <stop
         style="stop-color:#829dc1;stop-opacity:1"
         offset="0"
         id="stop894" />
      <stop
         style="stop-color:#5d79a6;stop-opacity:0.98823529"
         offset="1"
         id="stop896" />
    </linearGradient>
    <linearGradient
       inkscape:collect="always"
       xlink:href="#linearGradient2232"
       id="linearGradient876"
       x1="34.144169"
       y1="252.39944"
       x2="20.664787"
       y2="251.73909"
       gradientUnits="userSpaceOnUse"
       spreadMethod="repeat" />
    <linearGradient
       inkscape:collect="always"
       xlink:href="#linearGradient2232"
       id="linearGradient884"
       x1="4.1739683"
       y1="250.01837"
       x2="51.304974"
       y2="254.33237"
       gradientUnits="userSpaceOnUse"
       spreadMethod="repeat" />
    <linearGradient
       inkscape:collect="always"
       xlink:href="#linearGradient898"
       id="linearGradient900"
       x1="27.378111"
       y1="251.74374"
       x2="47.938103"
       y2="253.55042"
       gradientUnits="userSpaceOnUse"
       spreadMethod="repeat" />
  </defs>
  <sodipodi:namedview
     id="base"
     pagecolor="#ffffff"
     bordercolor="#666666"
     borderopacity="1.0"
     inkscape:pageopacity="0.0"
     inkscape:pageshadow="2"
     inkscape:zoom="0.80553244"
     inkscape:cx="51.51872"
     inkscape:cy="63.312162"
     inkscape:document-units="mm"
     inkscape:current-layer="layer1"
     showgrid="false"
     inkscape:window-width="1527"
     inkscape:window-height="993"
     inkscape:window-x="352"
     inkscape:window-y="42"
     inkscape:window-maximized="0"
     inkscape:snap-smooth-nodes="true"
     units="px"
     inkscape:pagecheckerboard="true"
     inkscape:showpageshadow="false"
     inkscape:snap-global="false"
     inkscape:snap-nodes="true"
     inkscape:snap-others="false"
     inkscape:snap-bbox="true"
     inkscape:bbox-nodes="true"
     inkscape:document-rotation="0" />
  <metadata
     id="metadata5">
    <rdf:RDF>
      <cc:Work
         rdf:about="">
        <dc:format>image/svg+xml</dc:format>
        <dc:type
           rdf:resource="http://purl.org/dc/dcmitype/StillImage" />
      </cc:Work>
    </rdf:RDF>
  </metadata>
  <g
     inkscape:label="Calque 1"
     inkscape:groupmode="layer"
     id="layer1"
     transform="translate(0,-229.26665)">
    <g
       id="g908"
       inkscape:label="Rouage"
       transform="matrix(-0.74025753,-0.72933607,0.72933607,-0.74025753,-140.22794,458.69339)"
       style="display:inline">
      <path
         inkscape:export-ydpi="96"
         inkscape:export-xdpi="96"
         inkscape:export-filename="C:\Users\sedenion\Desktop\path4627-7.png"
         id="path4627-7-2"
         d="m 40.428735,243.53738 c -0.735497,-1.14898 -1.609695,-2.18062 -2.597119,-3.07604 l 2.365224,-5.98509 -5.893043,-3.0417 -3.512637,5.39624 c -1.302224,-0.28611 -2.648875,-0.40153 -4.01182,-0.33521 l -2.558133,-5.90443 -6.318305,2.01635 1.330928,6.29607 c -1.148346,0.7351 -2.176913,1.60907 -3.071997,2.59584 l -5.989135,-2.36394 -3.0417133,5.89305 5.3962463,3.51264 c -0.285873,1.3012 -0.402478,2.6459 -0.336501,4.00777 l -5.9031292,2.56219 2.0163491,6.31832 6.2947711,-1.33498 c 0.735482,1.14941 1.609613,2.18027 2.597138,3.07602 l -2.363939,5.98914 5.893033,3.04172 3.508599,-5.39495 c 1.301875,0.28623 2.649193,0.40121 4.011821,0.3352 l 2.562189,5.90315 6.318325,-2.01637 -1.334994,-6.29477 c 1.150047,-0.73587 2.183981,-1.61023 3.080101,-2.59844 l 5.985088,2.36525 3.041702,-5.89305 -5.394942,-3.5086 c 0.286449,-1.3029 0.400259,-2.65217 0.333903,-4.01587 l 5.904433,-2.55814 -2.016354,-6.31831 z m -7.069911,6.41544 c 1.030161,3.22802 -0.751299,6.67943 -3.979322,7.70959 -3.228032,1.03015 -6.679425,-0.7513 -7.709575,-3.97933 -1.030152,-3.22802 0.751288,-6.67941 3.979322,-7.70957 3.228023,-1.03016 6.679414,0.7513 7.709575,3.97931 z"
         inkscape:connector-curvature="0"
         style="display:inline;fill:url(#linearGradient900);fill-opacity:1;stroke:none;stroke-width:1.62406;stroke-linecap:butt;stroke-linejoin:miter;stroke-miterlimit:4;stroke-dasharray:none;stroke-opacity:1"
         sodipodi:nodetypes="cccccccccccccccccccccccccccccccccsssss"
         inkscape:label="Rouage" />
      <path
         inkscape:label="Bizau Interieur"
         inkscape:connector-curvature="0"
         id="path843"
         d="m 28.107422,245.29688 c -0.846846,-0.0779 -1.723909,0.009 -2.583984,0.2832 -3.440312,1.0979 -5.34399,4.78822 -4.246094,8.22851 1.097894,3.44031 4.786252,5.34399 8.226562,4.2461 3.440303,-1.09791 5.345953,-4.78626 4.248047,-8.22657 -0.823429,-2.58021 -3.103993,-4.29755 -5.644531,-4.53124 z m -0.07227,0.82031 c 2.221091,0.2018 4.209829,1.69914 4.931641,3.96093 0.962416,3.01574 -0.697147,6.229 -3.712891,7.19141 -3.015753,0.96241 -6.229,-0.69519 -7.191406,-3.71094 -0.962408,-3.01574 0.697135,-6.22899 3.712891,-7.1914 0.753935,-0.24061 1.519402,-0.31727 2.259765,-0.25 z"
         style="color:#000000;font-style:normal;font-variant:normal;font-weight:normal;font-stretch:normal;font-size:medium;line-height:normal;font-family:sans-serif;font-variant-ligatures:normal;font-variant-position:normal;font-variant-caps:normal;font-variant-numeric:normal;font-variant-alternates:normal;font-feature-settings:normal;text-indent:0;text-align:start;text-decoration:none;text-decoration-line:none;text-decoration-style:solid;text-decoration-color:#000000;letter-spacing:normal;word-spacing:normal;text-transform:none;writing-mode:lr-tb;direction:ltr;text-orientation:mixed;dominant-baseline:auto;baseline-shift:baseline;text-anchor:start;white-space:normal;shape-padding:0;clip-rule:nonzero;display:inline;overflow:visible;visibility:visible;opacity:1;isolation:auto;mix-blend-mode:normal;color-interpolation:sRGB;color-interpolation-filters:linearRGB;solid-color:#000000;solid-opacity:1;vector-effect:none;fill:url(#linearGradient876);fill-opacity:1;fill-rule:nonzero;stroke:none;stroke-width:0.824741;stroke-linecap:butt;stroke-linejoin:miter;stroke-miterlimit:4;stroke-dasharray:none;stroke-dashoffset:0;stroke-opacity:1;color-rendering:auto;image-rendering:auto;shape-rendering:auto;text-rendering:auto;enable-background:accumulate"
         sodipodi:nodetypes="ccccccccsccc" />
      <path
         style="color:#000000;font-style:normal;font-variant:normal;font-weight:normal;font-stretch:normal;font-size:medium;line-height:normal;font-family:sans-serif;font-variant-ligatures:normal;font-variant-position:normal;font-variant-caps:normal;font-variant-numeric:normal;font-variant-alternates:normal;font-feature-settings:normal;text-indent:0;text-align:start;text-decoration:none;text-decoration-line:none;text-decoration-style:solid;text-decoration-color:#000000;letter-spacing:normal;word-spacing:normal;text-transform:none;writing-mode:lr-tb;direction:ltr;text-orientation:mixed;dominant-baseline:auto;baseline-shift:baseline;text-anchor:start;white-space:normal;shape-padding:0;clip-rule:nonzero;display:inline;overflow:visible;visibility:visible;opacity:1;isolation:auto;mix-blend-mode:normal;color-interpolation:sRGB;color-interpolation-filters:linearRGB;solid-color:#000000;solid-opacity:1;vector-effect:none;fill:url(#linearGradient884);fill-opacity:1;fill-rule:nonzero;stroke:none;stroke-width:0.824741;stroke-linecap:butt;stroke-linejoin:miter;stroke-miterlimit:4;stroke-dasharray:none;stroke-dashoffset:0;stroke-opacity:1;color-rendering:auto;image-rendering:auto;shape-rendering:auto;text-rendering:auto;enable-background:accumulate"
         d="m 24.451172,230.08398 -7.029297,2.24414 1.357422,6.42383 c -0.99045,0.6617 -1.890061,1.4255 -2.691406,2.27539 l -6.1113285,-2.41211 -3.3828125,6.55469 5.505859,3.58399 c -0.228799,1.14589 -0.329255,2.32064 -0.294921,3.51171 l -6.023438,2.61524 2.2441406,7.0293 6.4218754,-1.36133 c 0.662259,0.99193 1.424214,1.89467 2.27539,2.69726 l -2.412109,6.10938 6.556641,3.38281 3.580078,-5.5039 c 1.146684,0.22875 2.324304,0.32753 3.515625,0.29296 l 2.615234,6.02344 7.029297,-2.24219 -1.363281,-6.42187 c 0.993183,-0.66258 1.895317,-1.42702 2.699218,-2.2793 l 6.107422,2.41406 3.384766,-6.55664 -5.503906,-3.58007 c 0.22887,-1.14805 0.326003,-2.32715 0.291015,-3.51954 l 6.025391,-2.61132 -2.244141,-7.02735 -6.421875,1.35742 c -0.662552,-0.99247 -1.425549,-1.89416 -2.277343,-2.69726 l 2.412109,-6.10547 -6.554688,-3.38477 -3.583984,5.50586 c -1.147261,-0.22893 -2.323486,-0.32772 -3.515625,-0.29296 z m -0.460938,1.01368 2.523438,5.82422 0.285156,-0.0137 c 1.326576,-0.0645 2.637567,0.0479 3.904297,0.32618 l 0.277344,0.0605 3.464843,-5.32226 5.230469,2.69922 -2.332031,5.90234 0.210938,0.19336 c 0.960386,0.8709 1.811411,1.87377 2.527343,2.99219 L 40.234375,244 l 0.279297,-0.0586 5.93164,-1.25391 1.789063,5.60742 -5.824219,2.52344 0.01563,0.28516 c 0.0646,1.32764 -0.04762,2.63929 -0.326172,3.90625 l -0.06055,0.27929 5.320313,3.46094 -2.699219,5.23047 -5.902344,-2.33399 -0.191406,0.21094 c -0.8714,0.96095 -1.878399,1.81288 -2.998047,2.5293 l -0.240234,0.15234 1.316406,6.20899 -5.607422,1.79101 -2.527343,-5.82226 -0.285157,0.0137 c -1.32639,0.0642 -2.636124,-0.0478 -3.902343,-0.32617 l -0.279297,-0.0625 -3.460938,5.32226 -5.230469,-2.69922 2.332032,-5.9082 -0.210938,-0.19141 c -0.960605,-0.87133 -1.811481,-1.87343 -2.527344,-2.99218 l -0.152343,-0.24024 -6.2089846,1.31641 -1.7910156,-5.60742 5.8242192,-2.52735 -0.01367,-0.28515 c -0.06421,-1.32531 0.04803,-2.6344 0.326172,-3.90039 l 0.06055,-0.27735 -5.3222652,-3.46484 2.6992192,-5.23047 5.908203,2.33203 0.191406,-0.21094 c 0.87087,-0.96007 1.872716,-1.81197 2.990234,-2.52734 l 0.238281,-0.15234 -1.3125,-6.21094 z"
         id="path849"
         inkscape:connector-curvature="0"
         inkscape:label="Bizau Exterieur"
         sodipodi:nodetypes="ccccccccccccccccccccccccccccccccccccccccccccccccccccccccccccccccccccccccccccccccccc" />
    </g>
  </g>
</svg>
