<?xml version="1.0" encoding="UTF-8" standalone="no"?>
<!-- Created with Inkscape (http://www.inkscape.org/) -->

<svg
   width="164"
   height="314"
   viewBox="0 0 43.391666 83.079169"
   version="1.1"
   id="svg8"
   inkscape:version="1.3 (0e150ed6c4, 2023-07-21)"
   sodipodi:docname="setup_splash.svg"
   inkscape:export-filename="setup_splash.png"
   inkscape:export-xdpi="96"
   inkscape:export-ydpi="96"
   enable-background="new"
   xml:space="preserve"
   xmlns:inkscape="http://www.inkscape.org/namespaces/inkscape"
   xmlns:sodipodi="http://sodipodi.sourceforge.net/DTD/sodipodi-0.dtd"
   xmlns:xlink="http://www.w3.org/1999/xlink"
   xmlns="http://www.w3.org/2000/svg"
   xmlns:svg="http://www.w3.org/2000/svg"
   xmlns:rdf="http://www.w3.org/1999/02/22-rdf-syntax-ns#"
   xmlns:cc="http://creativecommons.org/ns#"
   xmlns:dc="http://purl.org/dc/elements/1.1/"><defs
     id="defs2"><linearGradient
       inkscape:collect="always"
       id="linearGradient831"><stop
         style="stop-color:#001a49;stop-opacity:1"
         offset="0"
         id="stop827" /><stop
         style="stop-color:#577bbd;stop-opacity:1"
         offset="1"
         id="stop829" /></linearGradient><linearGradient
       inkscape:collect="always"
       xlink:href="#linearGradient831"
       id="linearGradient833"
       x1="10.63355"
       y1="238.25595"
       x2="21.054636"
       y2="289.85681"
       gradientUnits="userSpaceOnUse"
       gradientTransform="matrix(1.4909091,0,0,1.0129032,0.30772094,-3.9140506)" /><linearGradient
       id="linearGradient874"
       inkscape:collect="always"><stop
         id="stop870"
         offset="0"
         style="stop-color:#f0f0f0;stop-opacity:1" /><stop
         id="stop872"
         offset="1"
         style="stop-color:#c3c3c3;stop-opacity:1" /></linearGradient><filter
       inkscape:collect="always"
       style="color-interpolation-filters:sRGB"
       id="filter2278"
       x="0"
       y="0"
       width="1"
       height="1"><feBlend
         inkscape:collect="always"
         mode="hard-light"
         in2="BackgroundImage"
         id="feBlend2280" /></filter><linearGradient
       inkscape:collect="always"
       xlink:href="#linearGradient874"
       id="linearGradient17758"
       x1="162.14946"
       y1="34.537952"
       x2="121.6965"
       y2="69.230156"
       gradientUnits="userSpaceOnUse"
       spreadMethod="pad"
       gradientTransform="matrix(0.78335406,-1.8704865,-1.7103811,-0.86699924,63.994204,420.26611)" /><linearGradient
       inkscape:collect="always"
       xlink:href="#linearGradient874"
       id="linearGradient49402"
       x1="205.53696"
       y1="21.959373"
       x2="170.94469"
       y2="7.0079703"
       gradientUnits="userSpaceOnUse"
       gradientTransform="matrix(-1.144269,0.66064398,-0.66064398,-1.144269,315.62244,74.916756)" /><inkscape:perspective
       sodipodi:type="inkscape:persp3d"
       inkscape:vp_x="0 : 33.866667 : 1"
       inkscape:vp_y="0 : 1000 : 0"
       inkscape:vp_z="67.733332 : 33.866667 : 1"
       inkscape:persp3d-origin="33.866666 : 22.577778 : 1"
       id="perspective1" /><linearGradient
       id="linearGradient55"
       inkscape:collect="always"><stop
         style="stop-color:#feb114;stop-opacity:1;"
         offset="0.36557791"
         id="stop53" /><stop
         style="stop-color:#fe9800;stop-opacity:1;"
         offset="0.7847572"
         id="stop54" /><stop
         style="stop-color:#fe8000;stop-opacity:1;"
         offset="1"
         id="stop55" /></linearGradient><linearGradient
       id="linearGradient33"
       inkscape:collect="always"><stop
         style="stop-color:#ffffff;stop-opacity:0;"
         offset="0"
         id="stop34" /><stop
         style="stop-color:#ffffff;stop-opacity:0.17960088;"
         offset="0.38735342"
         id="stop37" /><stop
         style="stop-color:#ffffff;stop-opacity:0;"
         offset="0.41792291"
         id="stop36" /><stop
         style="stop-color:#ffffff;stop-opacity:0;"
         offset="1"
         id="stop35" /></linearGradient><radialGradient
       inkscape:collect="always"
       xlink:href="#linearGradient33"
       id="radialGradient36"
       cx="31.490932"
       cy="250.00366"
       fx="31.490932"
       fy="250.00366"
       r="32.808334"
       gradientUnits="userSpaceOnUse"
       gradientTransform="matrix(1.585022,-9.6130467e-7,1.7941217e-8,1.1698177,-16.047157,-41.363876)" /><radialGradient
       inkscape:collect="always"
       xlink:href="#linearGradient55"
       id="radialGradient53"
       cx="33.868942"
       cy="252.4281"
       fx="33.868942"
       fy="252.4281"
       r="29.633335"
       gradientUnits="userSpaceOnUse"
       gradientTransform="matrix(1.3911703,0,0,1.3520419,-13.246276,-88.723354)" /></defs><sodipodi:namedview
     id="base"
     pagecolor="#ffffff"
     bordercolor="#666666"
     borderopacity="1.0"
     inkscape:pageopacity="0.0"
     inkscape:pageshadow="2"
     inkscape:zoom="2.0000001"
     inkscape:cx="121.75"
     inkscape:cy="182.75"
     inkscape:document-units="px"
     inkscape:current-layer="layer1"
     showgrid="false"
     units="px"
     inkscape:showpageshadow="false"
     inkscape:window-width="1440"
     inkscape:window-height="810"
     inkscape:window-x="328"
     inkscape:window-y="92"
     inkscape:window-maximized="0"
     inkscape:pagecheckerboard="true"
     borderlayer="true"
     showguides="true"
     inkscape:guide-bbox="true"
     inkscape:snap-global="false"
     inkscape:deskcolor="#d1d1d1" /><metadata
     id="metadata5"><rdf:RDF><cc:Work
         rdf:about=""><dc:format>image/svg+xml</dc:format><dc:type
           rdf:resource="http://purl.org/dc/dcmitype/StillImage" /><dc:title /></cc:Work></rdf:RDF></metadata><g
     inkscape:label="Calque 1"
     inkscape:groupmode="layer"
     id="layer1"
     transform="translate(0,-213.92082)"
     style="opacity:1"><rect
       style="opacity:1;fill:url(#linearGradient833);fill-opacity:1;stroke:none;stroke-width:2.45776;stroke-linecap:butt;stroke-linejoin:round;stroke-miterlimit:4;stroke-dasharray:none;stroke-dashoffset:19.75;stroke-opacity:1;paint-order:normal"
       id="rect815"
       width="43.391666"
       height="83.07917"
       x="0"
       y="213.92081"
       inkscape:label="Fond" /><path
       style="opacity:1;fill:#b9d2ff;fill-opacity:0.0627451;fill-rule:nonzero;stroke:none;stroke-width:2.44206;stroke-linecap:butt;stroke-linejoin:round;stroke-miterlimit:4;stroke-dasharray:none;stroke-dashoffset:19.75;stroke-opacity:1;paint-order:normal"
       d="m 0,251.42602 v 45.57396 H 43.391667 V 269.1252 A 88.559765,59.253894 0 0 0 0,251.42602 Z"
       id="path842"
       inkscape:connector-curvature="0"
       inkscape:label="Ellipse2" /><path
       style="opacity:1;fill:#b9d5ff;fill-opacity:0.0627451;stroke:none;stroke-width:2.01286;stroke-linecap:butt;stroke-linejoin:round;stroke-miterlimit:4;stroke-dasharray:none;stroke-dashoffset:19.75;stroke-opacity:1;paint-order:normal"
       d="m 0,213.92082 v 83.07916 h 9.1767008 a 46.994463,134.18496 0 0 0 10.0882732,-82.82739 46.994463,134.18496 0 0 0 -0.0031,-0.25177 z"
       id="rect862"
       inkscape:connector-curvature="0"
       inkscape:label="Ellipse1" /><g
       id="g2276"
       inkscape:label="Laptop"
       style="opacity:0.8;filter:url(#filter2278)"
       transform="translate(0,2.1166667)"><path
         inkscape:label="Laptop Ecran"
         inkscape:connector-curvature="0"
         id="rect2194"
         transform="matrix(0.26458334,0,0,0.26458334,0,213.92082)"
         d="m 37.101562,143.13086 a 4.0004001,4.0004001 0 0 0 -4.001953,4.00195 v 102.40821 a 4.0004001,4.0004001 0 0 0 4.001953,4.00195 H 197.94531 a 4.0004001,4.0004001 0 0 0 4.00196,-4.00195 V 147.13281 a 4.0004001,4.0004001 0 0 0 -4.00196,-4.00195 H 134.5 v 7.99609 h 59.44531 v 94.41407 H 41.101562 V 151.12695 H 100.5 v -7.99609 z"
         style="color:#000000;font-style:normal;font-variant:normal;font-weight:normal;font-stretch:normal;font-size:medium;line-height:normal;font-family:sans-serif;font-variant-ligatures:normal;font-variant-position:normal;font-variant-caps:normal;font-variant-numeric:normal;font-variant-alternates:normal;font-feature-settings:normal;text-indent:0;text-align:start;text-decoration:none;text-decoration-line:none;text-decoration-style:solid;text-decoration-color:#000000;letter-spacing:normal;word-spacing:normal;text-transform:none;writing-mode:lr-tb;direction:ltr;text-orientation:mixed;dominant-baseline:auto;baseline-shift:baseline;text-anchor:start;white-space:normal;shape-padding:0;clip-rule:nonzero;display:inline;overflow:visible;visibility:visible;opacity:1;isolation:auto;mix-blend-mode:normal;color-interpolation:sRGB;color-interpolation-filters:linearRGB;solid-color:#000000;solid-opacity:1;vector-effect:none;fill:#ffffff;fill-opacity:1;fill-rule:nonzero;stroke:none;stroke-width:8;stroke-linecap:round;stroke-linejoin:round;stroke-miterlimit:4;stroke-dasharray:none;stroke-dashoffset:19.75;stroke-opacity:1;paint-order:normal;color-rendering:auto;image-rendering:auto;shape-rendering:auto;text-rendering:auto;enable-background:accumulate" /><path
         inkscape:label="Laptop Base"
         sodipodi:nodetypes="ccccccccc"
         inkscape:connector-curvature="0"
         id="path2196"
         d="M 58.7375,281.64754 H 38.251878 c 0,0 -0.130326,0.54657 -0.79375,0.54657 h -12.7 c -0.69886,0 -0.79375,-0.54657 -0.79375,-0.54657 H 3.4395834 c 0.127996,1.0869 -0.4050343,2.25804 1.3229166,2.40584 H 57.15 c 1.125802,-0.0173 1.70111,-0.54822 1.5875,-2.40584 z"
         style="fill:#ffffff;fill-opacity:1;stroke:none;stroke-width:0.264583px;stroke-linecap:butt;stroke-linejoin:miter;stroke-opacity:1" /><path
         inkscape:label="Fleche"
         inkscape:connector-curvature="0"
         id="rect2200"
         d="m 28.513131,242.08086 c -0.513028,0 -0.926042,0.41302 -0.926042,0.92604 v 17.0677 h -3.781166 l 7.287927,8.1194 7.287411,-8.1194 h -3.780647 v -17.0677 c 0,-0.51302 -0.413015,-0.92604 -0.926042,-0.92604 z"
         style="opacity:1;fill:#ffffff;fill-opacity:1;fill-rule:nonzero;stroke:none;stroke-width:2.11667;stroke-linecap:round;stroke-linejoin:round;stroke-miterlimit:4;stroke-dasharray:none;stroke-dashoffset:19.75;stroke-opacity:1;paint-order:normal"
         sodipodi:nodetypes="sscccccsss" /></g><g
       inkscape:label="Logo"
       id="layer1-5"
       transform="matrix(0.28346212,0,0,0.28346212,21.325636,152.58723)"
       style="display:none;opacity:1;mix-blend-mode:hard-light"><path
         d="m 170.8788,141.14029 c -7.13346,-0.97386 -18.91367,-6.37293 -41.51663,-5.88912 -1.65209,0.0352 -3.5042,0.39939 -5.24226,1.61802 -1.73809,1.21861 -3.0251,3.32286 -3.53536,5.17926 -1.02054,3.71273 -0.27626,6.33492 0.37384,8.96187 1.3002,5.25383 3.54028,10.8087 4.70013,15.88144 1.15983,5.07274 -0.60673,9.97184 -2.80142,13.54203 -3.1909,5.1908 -9.58732,6.52988 -17.89032,6.5681 -7.135288,0.0329 -14.353103,-3.30985 -16.817209,-5.91442 -2.795797,-2.95525 -5.247575,-8.22416 -4.134663,-13.42903 1.112889,-5.20485 3.320502,-10.94215 4.66431,-16.1501 0.67189,-2.60401 1.434279,-5.01405 0.68855,-8.66704 -0.37284,-1.82648 -1.500129,-4.13464 -3.326226,-5.52686 -1.826128,-1.39215 -3.830153,-1.72654 -5.48709,-1.69098 -20.011089,0.42829 -30.263973,6.75861 -42.491927,8.31174 -0.351884,0.0445 -0.843437,0.10609 -1.20817,0.15264 -0.62888,-13.89471 -6.557861,-36.05132 -7.331581,-45.856224 3.520177,0.858553 8.60384,2.567314 14.409592,3.393794 6.24494,0.88902 12.315815,0.27727 16.707726,-3.354342 4.391878,-3.6316 8.714598,-11.204512 7.844117,-21.315373 C 67.613734,66.84484 63.270215,60.610546 55.502167,57.260874 47.734146,53.911172 32.558448,58.45375 29.240021,59.785571 29.539495,45.286116 31.878592,16.250458 31.671798,7.9209616 L 167.88762,5.0053109 Z"
         style="display:inline;fill:url(#linearGradient17758);fill-opacity:1;stroke:url(#linearGradient49402);stroke-width:4.30171;stroke-linecap:square;stroke-linejoin:miter;stroke-miterlimit:4;stroke-dasharray:none"
         id="path13033"
         sodipodi:nodetypes="cssssssssssssssccszzzcccc"
         inkscape:transform-center-x="-3.76948"
         inkscape:transform-center-y="-7.1493321"
         transform="matrix(-0.00592677,0.29480502,-0.29480502,-0.00592677,57.044865,225.0716)"
         inkscape:label="Puzzle_New" /><g
         id="g861"
         style="display:inline;opacity:0.99;fill:#e1b84f;fill-opacity:1;stroke:none;stroke-width:7.55906;stroke-linecap:round;stroke-linejoin:miter;stroke-miterlimit:4;stroke-dasharray:none;stroke-dashoffset:19.75;stroke-opacity:1;paint-order:normal"
         transform="matrix(0.41521434,0,0,0.41521434,16.748932,173.81045)"
         inkscape:label="Package"><path
           d="M 65.824283,196.28324 10.274152,196.142 v 65.02302 l 55.550131,29.73918 55.450927,-29.51897 v -65.13647 z"
           style="fill:#bcbcbc;fill-opacity:1;stroke:none;stroke-width:1.30204"
           id="path886"
           inkscape:connector-curvature="0"
           sodipodi:nodetypes="ccccccc"
           inkscape:label="Face Droite" /><path
           d="m 10.274152,196.142 55.550131,0.14124 V 290.9042 L 10.274152,261.16502 Z"
           style="fill:#a3a3a3;fill-opacity:1;stroke:none;stroke-width:1.30204"
           id="path888"
           inkscape:connector-curvature="0"
           sodipodi:nodetypes="ccccc"
           inkscape:label="Face Gauche" /><path
           d="M 10.274152,196.142 65.824283,212.8676 121.27521,196.24876 65.650513,186.17097 Z"
           style="display:inline;fill:#dfdfdf;fill-opacity:1;stroke:none;stroke-width:1.30204"
           id="path884"
           inkscape:connector-curvature="0"
           inkscape:label="Face Dessus" /><path
           style="fill:#acacac;fill-opacity:1;stroke:none;stroke-width:0.264583px;stroke-linecap:butt;stroke-linejoin:miter;stroke-opacity:1"
           d="m 33.91635,191.885 54.737137,14.14061 13.272853,-3.97793 -54.883702,-12.52619 z"
           id="path894"
           inkscape:connector-curvature="0"
           sodipodi:nodetypes="ccccc"
           inkscape:label="Bande Dessus" /><path
           style="fill:#999999;fill-opacity:1;stroke:none;stroke-width:0.264583px;stroke-linecap:butt;stroke-linejoin:miter;stroke-opacity:1"
           d="m 88.653252,206.02561 v 39.71556 l 13.273138,-5.53766 v -38.15583 z"
           id="path896"
           inkscape:connector-curvature="0"
           sodipodi:nodetypes="ccccc"
           inkscape:label="Bande Face" /></g></g><g
       id="g12"
       inkscape:label="Logo v1.2"
       style="opacity:0.825;mix-blend-mode:luminosity"
       transform="matrix(0.29408337,0,0,0.29408337,21.065619,150.08096)"><g
         id="g51"
         transform="matrix(1.0133313,0,0,1.0133313,-0.45379251,-3.5089624)"
         style="display:inline"
         inkscape:label="Couronne"><path
           id="path51"
           style="display:none;fill:#f2640f;fill-opacity:1;stroke:none;stroke-width:1.32292;stroke-linecap:square;stroke-linejoin:round;stroke-opacity:1"
           inkscape:transform-center-x="-0.00052849999"
           inkscape:transform-center-y="-0.002205"
           d="m 26.846674,294.4424 2.256352,-2.28703 -5.622508,-1.50654 0.810546,3.10881 z m 17.407198,-58.83095 -0.810361,-3.10931 -2.555678,-0.6848 -2.256451,2.28757 z m -25.271706,55.94717 2.771397,-1.62512 -5.041007,-2.91041 -0.02169,3.21266 z m 32.040632,-52.32102 0.022,-3.2131 -2.291357,-1.32292 -2.771631,1.62561 z m -38.890787,47.50002 3.097577,-0.85246 -4.115969,-4.11595 -0.852453,3.09758 z m 44.490551,-42.2455 0.852859,-3.09793 -1.870886,-1.87088 -3.097927,0.85286 z m -49.8595254,35.81582 3.2126622,-0.0217 -2.9104335,-5.041 -1.625118,2.7714 z m 53.9085124,-29.29102 1.625601,-2.77163 -1.322916,-2.29136 -3.213105,0.022 z m -57.4304193,21.69083 3.1088198,0.8105 -1.5065555,-5.62251 -2.2870358,2.25636 z m 59.6526973,-14.3404 2.28756,-2.25645 -0.684791,-2.55568 -3.109316,-0.81036 z m -61.0875233,6.08764 2.7931151,1.58751 -9e-6,-5.82085 -2.7930937,1.58754 z m 61.3316473,1.5875 2.793626,-1.5875 3e-6,-2.64584 -2.793632,-1.5875 z m -60.5816125,-9.93041 2.2870637,2.25633 1.5065377,-5.62251 -3.1088069,0.81054 z m 58.8309455,17.40721 3.109313,-0.81037 0.684795,-2.55568 -2.287567,-2.25645 z m -55.9471632,-25.27172 1.6251535,2.77138 2.9104145,-5.041 -3.2126593,-0.0217 z m 52.3210132,32.04064 3.213102,0.022 1.32292,-2.29136 -1.625607,-2.77163 z m -47.50001,-38.89079 0.852494,3.09756 4.115951,-4.11596 -3.097563,-0.8525 z m 42.245492,44.49055 3.097925,0.85286 1.870888,-1.87088 -0.852864,-3.09793 z m -35.815811,-49.85952 0.02174,3.21265 5.04099,-2.91042 -2.771372,-1.62516 z m 29.29101,53.90851 2.77163,1.6256 2.291358,-1.32291 -0.022,-3.21311 z m -21.690821,-57.43042 -0.810497,3.10881 5.622493,-1.50654 -2.256317,-2.28707 z m 14.340392,59.6527 2.256452,2.28756 2.555678,-0.68479 0.810363,-3.10932 z m -6.087636,-61.08753 -1.5875,2.79311 h 5.820833 l -1.5875,-2.79311 z m -1.5875,61.33165 1.5875,2.79363 h 2.645833 l 1.5875,-2.79363 z"
           inkscape:label="Dents Fines" /><path
           id="path12"
           style="display:inline;fill:#f2640f;stroke-width:1.64177;stroke-linecap:square;stroke-linejoin:round"
           inkscape:transform-center-x="-0.0010365"
           inkscape:transform-center-y="0.0017985196"
           d="m 14.663971,236.34077 5.599924,-3.23311 4.490953,3.54522 -9.266099,5.34979 z m 38.407469,53.59124 -5.599928,3.23312 -4.490956,-3.54524 9.266107,-5.34978 z m -49.2317089,-40.4002 3.2331196,-5.59992 5.6618933,0.82478 -5.3497841,9.2661 z m 60.0574629,27.20764 -3.233119,5.59993 -5.661902,-0.82479 5.349794,-9.2661 z m -62.8360074,-10.37174 -5e-7,-6.46624 5.3157376,-2.11666 5e-7,10.69957 z m 65.6151054,-6.46623 10e-7,6.46624 -5.315742,2.11667 5e-6,-10.69958 z m -59.6034452,22.43582 -3.2331216,-5.59993 3.5452339,-4.49095 5.3497859,9.2661 z m 53.5912292,-38.40748 3.233122,5.59993 -3.545233,4.49096 -5.349786,-9.26611 z m -40.400184,49.23172 -5.59993,-3.23312 0.824784,-5.6619 9.266103,5.34979 z m 27.207625,-60.05747 5.59993,3.23312 -0.824783,5.6619 -9.266103,-5.34979 z M 37.09979,295.94008 h -6.466242 l -2.116666,-5.31574 h 10.699574 z m -6.466242,-65.61511 h 6.466242 l 2.116666,5.31574 H 28.516882 Z"
           inkscape:label="Dents Larges"
           transform="matrix(1.018702,0,0,1.0187019,-0.63320996,-4.9192494)" /><circle
           style="display:inline;fill:url(#radialGradient53);fill-opacity:1;stroke:#f2640f;stroke-width:2.08882;stroke-linecap:square;stroke-linejoin:round;stroke-dasharray:none;stroke-opacity:1"
           id="path52"
           cx="33.868942"
           cy="263.13437"
           r="28.199068"
           inkscape:label="Cercle" /></g><g
         id="g41"
         transform="matrix(0.75231307,0,0,0.75231307,8.3883308,66.335843)"
         style="display:inline;fill:#ffffff;fill-opacity:1;stroke:none;stroke-width:1.35728;stroke-dasharray:none;stroke-opacity:1"
         inkscape:label="M"><path
           id="path39"
           style="display:inline;opacity:1;fill:#ffffff;fill-opacity:1;stroke:none;stroke-width:1.35728;stroke-linecap:square;stroke-linejoin:round;stroke-dasharray:none;stroke-opacity:1"
           inkscape:label="Jambe"
           transform="matrix(-1,0,0,1,67.733335,-1.0278749e-6)"
           d="m 19.014343,239.0769 c -9.6257832,6.31227 -14.6470904,23.17532 -7.609354,37.51193 l 12.565641,-1.38648 c -6.43571,-10.03189 -5.377576,-21.73312 -1.158586,-29.92376 l 11.054623,18.05368 v -11.77695 l -6.661609,-12.42571 z m 29.704649,0 c 9.625784,6.31227 14.647091,23.17532 7.609354,37.51193 l -12.565641,-1.38648 c 6.43571,-10.03189 5.377576,-21.73312 1.158586,-29.92376 l -11.054623,18.05368 v -11.77695 l 6.661609,-12.42571 z" /><path
           sodipodi:type="star"
           style="display:inline;opacity:1;fill:#ffffff;fill-opacity:1;stroke:none;stroke-width:6.75751;stroke-linecap:square;stroke-linejoin:round;stroke-dasharray:none;stroke-opacity:1"
           id="path38"
           inkscape:flatsided="false"
           sodipodi:sides="3"
           sodipodi:cx="93.338097"
           sodipodi:cy="186.32265"
           sodipodi:r1="49.508839"
           sodipodi:r2="24.754417"
           sodipodi:arg1="1.5707963"
           sodipodi:arg2="2.6179939"
           inkscape:rounded="0"
           inkscape:randomized="0"
           d="m 93.338098,235.83149 -21.437956,-37.13163 -21.437958,-37.13163 42.875913,0 42.875913,0 -21.43796,37.13163 z"
           transform="matrix(0.24220038,-0.10650498,0.06137752,0.13957711,-15.240133,261.12712)"
           inkscape:transform-center-y="-0.5556777"
           inkscape:transform-center-x="1.519365"
           inkscape:label="Fleche" /><path
           sodipodi:type="star"
           style="display:inline;opacity:1;fill:#ffffff;fill-opacity:1;stroke:none;stroke-width:6.75751;stroke-linecap:square;stroke-linejoin:round;stroke-dasharray:none;stroke-opacity:1"
           id="path40"
           inkscape:flatsided="false"
           sodipodi:sides="3"
           sodipodi:cx="93.338097"
           sodipodi:cy="186.32265"
           sodipodi:r1="49.508839"
           sodipodi:r2="24.754417"
           sodipodi:arg1="1.5707963"
           sodipodi:arg2="2.6179939"
           inkscape:rounded="0"
           inkscape:randomized="0"
           d="m 93.338098,235.83149 -21.437956,-37.13163 -21.437958,-37.13163 42.875913,0 42.875913,0 -21.43796,37.13163 z"
           transform="matrix(-0.24220038,-0.10650498,-0.06137752,0.13957711,82.973463,261.12712)"
           inkscape:transform-center-y="-0.5556777"
           inkscape:transform-center-x="1.519365"
           inkscape:label="Fleche" /></g><circle
         style="display:inline;opacity:0.917;mix-blend-mode:screen;fill:url(#radialGradient36);fill-opacity:1;stroke:none;stroke-width:2.11667;stroke-linecap:square;stroke-linejoin:round;stroke-dasharray:none;stroke-opacity:1"
         id="circle33"
         cx="33.866669"
         cy="263.1333"
         r="32.808334"
         sodipodi:insensitive="true"
         inkscape:label="Reflet" /></g></g></svg>
