<?xml version="1.0" encoding="UTF-8" standalone="no"?>
<!-- Created with Inkscape (http://www.inkscape.org/) -->

<svg
   width="110"
   height="310"
   viewBox="0 0 29.104166 82.020836"
   version="1.1"
   id="svg8"
   inkscape:version="1.1.1 (3bf5ae0d25, 2021-09-20)"
   sodipodi:docname="wiz_splash.svg"
   inkscape:export-filename="D:\Atelier\Code\Cpp\OpenModMan\art\wiz_splash.png"
   inkscape:export-xdpi="96"
   inkscape:export-ydpi="96"
   xmlns:inkscape="http://www.inkscape.org/namespaces/inkscape"
   xmlns:sodipodi="http://sodipodi.sourceforge.net/DTD/sodipodi-0.dtd"
   xmlns:xlink="http://www.w3.org/1999/xlink"
   xmlns="http://www.w3.org/2000/svg"
   xmlns:svg="http://www.w3.org/2000/svg"
   xmlns:rdf="http://www.w3.org/1999/02/22-rdf-syntax-ns#"
   xmlns:cc="http://creativecommons.org/ns#"
   xmlns:dc="http://purl.org/dc/elements/1.1/">
  <defs
     id="defs2">
    <linearGradient
       inkscape:collect="always"
       id="linearGradient831">
      <stop
         style="stop-color:#001a49;stop-opacity:1"
         offset="0"
         id="stop827" />
      <stop
         style="stop-color:#577bbd;stop-opacity:1"
         offset="1"
         id="stop829" />
    </linearGradient>
    <linearGradient
       inkscape:collect="always"
       xlink:href="#linearGradient831"
       id="linearGradient833"
       x1="10.63355"
       y1="238.25595"
       x2="21.054636"
       y2="289.85681"
       gradientUnits="userSpaceOnUse"
       gradientTransform="translate(0.20639819,-0.08075816)" />
    <linearGradient
       inkscape:collect="always"
       id="linearGradient60826">
      <stop
         style="stop-color:#ffce62;stop-opacity:1"
         offset="0"
         id="stop60822" />
      <stop
         style="stop-color:#f2640f;stop-opacity:1"
         offset="1"
         id="stop60824" />
    </linearGradient>
    <linearGradient
       inkscape:collect="always"
       id="linearGradient60308">
      <stop
         style="stop-color:#ff7d00;stop-opacity:1"
         offset="0"
         id="stop60304" />
      <stop
         style="stop-color:#ffad1d;stop-opacity:1"
         offset="1"
         id="stop60306" />
    </linearGradient>
    <linearGradient
       inkscape:collect="always"
       xlink:href="#linearGradient60308"
       id="linearGradient17758"
       x1="162.14946"
       y1="34.537952"
       x2="121.6965"
       y2="69.230156"
       gradientUnits="userSpaceOnUse"
       spreadMethod="pad"
       gradientTransform="matrix(0.78335406,-1.8704865,-1.7103811,-0.86699924,63.994204,420.26611)" />
    <linearGradient
       inkscape:collect="always"
       xlink:href="#linearGradient60826"
       id="linearGradient49402"
       x1="205.53696"
       y1="21.959373"
       x2="170.94469"
       y2="7.0079703"
       gradientUnits="userSpaceOnUse"
       gradientTransform="matrix(-1.144269,0.66064398,-0.66064398,-1.144269,315.62244,74.916756)" />
  </defs>
  <sodipodi:namedview
     id="base"
     pagecolor="#ffffff"
     bordercolor="#666666"
     borderopacity="1.0"
     inkscape:pageopacity="0.0"
     inkscape:pageshadow="2"
     inkscape:zoom="1.1737759"
     inkscape:cx="52.820986"
     inkscape:cy="144.40576"
     inkscape:document-units="px"
     inkscape:current-layer="layer1"
     showgrid="false"
     units="px"
     inkscape:showpageshadow="false"
     inkscape:window-width="1440"
     inkscape:window-height="810"
     inkscape:window-x="667"
     inkscape:window-y="90"
     inkscape:window-maximized="0"
     inkscape:pagecheckerboard="true"
     borderlayer="true"
     inkscape:snap-global="false" />
  <metadata
     id="metadata5">
    <rdf:RDF>
      <cc:Work
         rdf:about="">
        <dc:format>image/svg+xml</dc:format>
        <dc:type
           rdf:resource="http://purl.org/dc/dcmitype/StillImage" />
        <dc:title />
      </cc:Work>
    </rdf:RDF>
  </metadata>
  <g
     inkscape:label="Calque 1"
     inkscape:groupmode="layer"
     id="layer1"
     transform="translate(0,-214.97915)">
    <rect
       style="opacity:1;fill:url(#linearGradient833);fill-opacity:1;stroke:none;stroke-width:2;stroke-linecap:butt;stroke-linejoin:round;stroke-miterlimit:4;stroke-dasharray:none;stroke-dashoffset:19.75;stroke-opacity:1;paint-order:normal"
       id="rect815"
       width="29.104166"
       height="82.020836"
       x="0"
       y="214.97914"
       inkscape:label="Fond" />
    <path
       style="opacity:1;fill:#b9d2ff;fill-opacity:0.0627451;fill-rule:nonzero;stroke:none;stroke-width:7.55905;stroke-linecap:butt;stroke-linejoin:round;stroke-miterlimit:4;stroke-dasharray:none;stroke-dashoffset:19.75;stroke-opacity:1;paint-order:normal"
       d="M 0,137.75195 V 310 H 110 V 204.64648 A 224.50334,223.95173 0 0 0 0,137.75195 Z"
       transform="matrix(0.26458333,0,0,0.26458333,0,214.97915)"
       id="path842"
       inkscape:connector-curvature="0"
       inkscape:label="Ellipse2" />
    <path
       style="opacity:1;fill:#b9d5ff;fill-opacity:0.0627451;stroke:none;stroke-width:7.55905;stroke-linecap:butt;stroke-linejoin:round;stroke-miterlimit:4;stroke-dasharray:none;stroke-dashoffset:19.75;stroke-opacity:1;paint-order:normal"
       d="M 0,0 V 310 H 34.683594 A 177.61687,500.69518 0 0 0 72.8125,0.93945312 177.61687,500.69518 0 0 0 72.800781,0 Z"
       transform="matrix(0.26458333,0,0,0.26458333,0,214.97915)"
       id="rect862"
       inkscape:connector-curvature="0"
       inkscape:label="Ellipse1" />
    <g
       inkscape:label="Logo"
       id="layer1-9"
       transform="matrix(0.33857699,0,0,0.33857699,3.0543463,142.04431)">
      <path
         d="m 170.8788,141.14029 c -7.13346,-0.97386 -18.91367,-6.37293 -41.51663,-5.88912 -1.65209,0.0352 -3.5042,0.39939 -5.24226,1.61802 -1.73809,1.21861 -3.0251,3.32286 -3.53536,5.17926 -1.02054,3.71273 -0.27626,6.33492 0.37384,8.96187 1.3002,5.25383 3.54028,10.8087 4.70013,15.88144 1.15983,5.07274 -0.60673,9.97184 -2.80142,13.54203 -3.1909,5.1908 -9.58732,6.52988 -17.89032,6.5681 -7.135288,0.0329 -14.353103,-3.30985 -16.817209,-5.91442 -2.795797,-2.95525 -5.247575,-8.22416 -4.134663,-13.42903 1.112889,-5.20485 3.320502,-10.94215 4.66431,-16.1501 0.67189,-2.60401 1.434279,-5.01405 0.68855,-8.66704 -0.37284,-1.82648 -1.500129,-4.13464 -3.326226,-5.52686 -1.826128,-1.39215 -3.830153,-1.72654 -5.48709,-1.69098 -20.011089,0.42829 -30.263973,6.75861 -42.491927,8.31174 -0.351884,0.0445 -0.843437,0.10609 -1.20817,0.15264 -0.62888,-13.89471 -6.557861,-36.05132 -7.331581,-45.856224 3.520177,0.858553 8.60384,2.567314 14.409592,3.393794 6.24494,0.88902 12.315815,0.27727 16.707726,-3.354342 4.391878,-3.6316 8.714598,-11.204512 7.844117,-21.315373 C 67.613734,66.84484 63.270215,60.610546 55.502167,57.260874 47.734146,53.911172 32.558448,58.45375 29.240021,59.785571 29.539495,45.286116 31.878592,16.250458 31.671798,7.9209616 L 167.88762,5.0053109 Z"
         style="display:inline;fill:url(#linearGradient17758);fill-opacity:1;stroke:url(#linearGradient49402);stroke-width:4.30171;stroke-linecap:square;stroke-linejoin:miter;stroke-miterlimit:4;stroke-dasharray:none"
         id="path13033"
         sodipodi:nodetypes="cssssssssssssssccszzzcccc"
         inkscape:transform-center-x="-3.76948"
         inkscape:transform-center-y="-7.1493321"
         transform="matrix(-0.00592677,0.29480502,-0.29480502,-0.00592677,57.044865,225.0716)"
         inkscape:label="Puzzle_New" />
      <g
         id="g861"
         style="display:inline;opacity:0.99;fill:#e1b84f;fill-opacity:1;stroke:none;stroke-width:7.55906;stroke-linecap:round;stroke-linejoin:miter;stroke-miterlimit:4;stroke-dasharray:none;stroke-dashoffset:19.75;stroke-opacity:1;paint-order:normal"
         transform="matrix(0.41521434,0,0,0.41521434,16.748932,173.81045)"
         inkscape:label="Package">
        <path
           d="M 65.824283,196.28324 10.274152,196.142 v 65.02302 l 55.550131,29.73918 55.450927,-29.51897 v -65.13647 z"
           style="fill:#f2d286;fill-opacity:1;stroke:none;stroke-width:1.30204"
           id="path886"
           inkscape:connector-curvature="0"
           sodipodi:nodetypes="ccccccc"
           inkscape:label="Face Droite" />
        <path
           d="m 10.274152,196.142 55.550131,0.14124 V 290.9042 L 10.274152,261.16502 Z"
           style="fill:#ddb36a;fill-opacity:1;stroke:none;stroke-width:1.30204"
           id="path888"
           inkscape:connector-curvature="0"
           sodipodi:nodetypes="ccccc"
           inkscape:label="Face Gauche" />
        <path
           d="M 10.274152,196.142 65.824283,212.8676 121.27521,196.24876 65.650513,186.17097 Z"
           style="display:inline;fill:#f8eac6;fill-opacity:1;stroke:none;stroke-width:1.30204"
           id="path884"
           inkscape:connector-curvature="0"
           inkscape:label="Face Dessus" />
        <path
           style="fill:#c8b890;fill-opacity:1;stroke:none;stroke-width:0.264583px;stroke-linecap:butt;stroke-linejoin:miter;stroke-opacity:1"
           d="m 33.91635,191.885 54.737137,14.14061 13.272853,-3.97793 -54.883702,-12.52619 z"
           id="path894"
           inkscape:connector-curvature="0"
           sodipodi:nodetypes="ccccc"
           inkscape:label="Bande Dessus" />
        <path
           style="fill:#bba877;fill-opacity:1;stroke:none;stroke-width:0.264583px;stroke-linecap:butt;stroke-linejoin:miter;stroke-opacity:1"
           d="m 88.653252,206.02561 v 39.71556 l 13.273138,-5.53766 v -38.15583 z"
           id="path896"
           inkscape:connector-curvature="0"
           sodipodi:nodetypes="ccccc"
           inkscape:label="Bande Face" />
      </g>
    </g>
  </g>
</svg>
